<svg version="1.2" xmlns="http://www.w3.org/2000/svg" viewBox="0 0 1024 818" width="1024" height="818">
	<style>
		.s0 { fill: #040d21 } 
		.s1 { fill: #040a19 } 
		.s2 { fill: #83837c } 
		.s3 { fill: #e9b06a } 
		.s4 { opacity: 1;fill: #16762e } 
		.s5 { fill: #e1a661 } 
		.s6 { fill: #dde2da } 
		.s7 { fill: #302911 } 
		.s8 { fill: #d5baa1 } 
		.s9 { fill: #815226 } 
		.s10 { fill: #a26a35 } 
	</style>
	<g id="Background">
		<path id="Path 0" class="s0" d="m0 394v512h1024v-1024h-1024z"/>
		<path id="Path 1" fill-rule="evenodd" class="s1" d="m619.3 74.02c2.86 0 5.88 0.43 6.7 0.95q1.51 0.95 0.5 1.99c-0.55 0.57-3.02 1.29-5.5 1.6-2.92 0.37-5.17 0.1-6.4-0.75-1.09-0.75-1.6-1.85-1.2-2.56 0.42-0.75 2.76-1.24 5.9-1.23zm6.95 10.09c1.65-0.07 3.25 0.63 4 1.75 0.69 1.02 2.38 2.19 3.75 2.61 1.38 0.42 4.08 1.95 9.5 6.02l-2.25-3.24c-1.24-1.79-2.25-3.93-2.25-4.75 0-0.82 0.79-1.75 1.75-2.05 1.04-0.33 2.28 0.18 3.04 1.25 0.71 0.99 1.54 2.93 1.83 4.3 0.3 1.38 1.07 3.76 1.71 5.29 0.64 1.53 1.51 2.77 1.92 2.75 0.41-0.02 0.86 0.72 1 1.64 0.23 1.57 0.36 1.57 1.93 0 0.92-0.92 2.38-1.68 3.25-1.68q1.57-0.01 2.11 3.75c0.3 2.06 1.99 7.45 3.75 11.96 1.96 5.03 3.89 8.43 4.96 8.75 0.99 0.31 1.75 1.52 1.75 2.79 0 1.24-0.65 7.88-1.45 14.75-0.8 6.88-1.7 13.29-2 14.25q-0.55 1.74-2.55 1.25c-1.68-0.42-2.07 0.09-2.45 3.25-0.24 2.06-0.69 5.89-1 8.5-0.51 4.42-0.85 4.89-4.8 6.74-2.34 1.09-5.27 2.78-6.52 3.75-1.25 0.97-2.83 2.86-3.5 4.21-0.81 1.61-2.78 2.92-5.73 3.8-2.71 0.82-7.88 1.23-13 1.05-7.48-0.26-8.92-0.63-12-3.02-1.92-1.5-4.62-2.73-6-2.74-1.74-0.01-3.11-1.01-6.5-6.54l-0.28 8c-0.21 5.94 0.37 10.64 2.25 18.25 1.39 5.64 3.16 11.49 3.93 13 0.78 1.51 2.58 3.76 4 5 1.43 1.24 3.68 4.61 5 7.5 1.31 2.89 3.14 9.07 4.06 13.75 0.91 4.68 1.97 15.32 2.35 23.67 0.62 13.65 0.91 15.44 2.95 18 1.24 1.55 3.71 5.26 5.5 8.23 1.78 2.97 4.25 5.79 5.49 6.25 1.24 0.47 2.7 0.62 3.25 0.35 0.55-0.27 1.77-2.86 2.72-5.75 0.95-2.9 3.08-6.53 4.75-8.11 1.67-1.58 7.42-5.06 12.78-7.75 8.56-4.29 10.51-4.89 16-4.89q6.25 0.01 9.75-1.85c1.92-1.02 6.02-4.96 9.11-8.75 3.08-3.8 9.61-10.22 14.5-14.28 4.89-4.06 11.17-9.91 13.97-13 2.79-3.09 7.74-7.39 11-9.56 3.25-2.17 8.62-5.03 11.92-6.36 3.82-1.54 11.26-3.09 20.5-4.29 7.98-1.03 15.63-1.87 17-1.88 1.94 0 2.17 0.21 1 0.92-1.18 0.73-0.86 1.06 1.5 1.56 1.65 0.34 5.03 1.35 7.5 2.23 2.48 0.87 7.2 1.76 10.5 1.97 3.3 0.21 7.58 0.36 9.5 0.33 1.92-0.03 6.06-0.16 9.2-0.3 3.69-0.15 6.16 0.23 7 1.08 0.71 0.73 0.85 1.24 0.3 1.13-0.55-0.1-1.67-0.12-2.5-0.05-0.82 0.08 0.3 0.97 2.5 1.99 2.2 1.02 4.99 2.92 6.2 4.23 1.2 1.31 3.56 4.86 5.23 7.88 2.53 4.58 3.05 5.08 3.14 3q0.1-2.53 1.51 2.5c0.77 2.75 1.16 6.13 0.86 7.5-0.3 1.38 0.38 4.97 1.5 8 1.12 3.02 5.46 10 9.63 15.5 4.17 5.5 12 16.3 17.39 24 5.39 7.7 10.93 16.25 12.31 19 1.37 2.75 3.46 8.15 4.64 12 1.29 4.25 2.12 9.65 2.11 13.75-0.01 5 0.29 6.56 1.18 6 0.9-0.57 1.04 0.6 0.55 4.75-0.36 3.02-1.35 10.79-2.2 17.25-0.85 6.46-2 12.65-2.55 13.75-0.55 1.1-1.34 1.99-1.75 1.98-0.41-0.01-1.87 2.57-3.25 5.73-1.58 3.64-5.22 8.7-9.9 13.77-4.16 4.52-9.62 9.24-12.5 10.82-2.8 1.55-6.16 3.8-7.45 5-1.28 1.21-3.04 3.55-3.89 5.2-0.85 1.65-3.57 5.25-6.04 8-3.16 3.52-5.26 5.01-7.1 5.04-1.9 0.04-3.37 1.14-5.35 4-1.5 2.18-3.63 6.32-4.75 9.21-1.11 2.89-3.32 7.84-4.91 11-1.63 3.23-5.46 8.21-8.75 11.38-3.95 3.79-8.96 7.16-15.36 10.33-9.01 4.46-9.81 4.67-15.5 4.09-3.3-0.33-7.07-1.38-8.38-2.33-1.31-0.94-3.34-2.28-4.5-2.96-1.28-0.74-5.97-1.24-11.87-1.25-6.54-0.01-10.98 0.5-13.5 1.54-2.06 0.85-7.58 1.95-12.25 2.44-4.67 0.5-9.04 1.49-9.7 2.21-0.93 1.02-0.67 2.93 1.22 8.8 2.22 6.92 2.72 7.65 6.52 9.5 3.33 1.62 4.64 3.14 6.93 8 1.55 3.3 3.36 8.7 4.03 12 0.9 4.46 0.94 7.79 0.15 13-0.58 3.85-1.32 10.83-1.65 15.5-0.53 7.65-0.36 8.9 1.69 12.5 2.2 3.84 2.29 4.94 2.38 27.5 0.07 16.05 0.5 24.77 1.38 27.5 0.7 2.2 2.29 5.8 3.54 8 1.49 2.64 2.49 6.55 2.93 11.5 0.4 4.47 0.05 14.57-0.87 25-0.86 9.62-1.55 20.09-1.55 23.25 0 3.16 0.56 6.89 1.25 8.28 0.98 1.99 1.99 2.52 4.75 2.51 1.92-0.01 9.69 1.78 17.25 3.97 7.56 2.2 16.34 5.28 19.5 6.86 3.16 1.57 14.3 5.73 24.75 9.24 12.78 4.28 20.31 7.37 23 9.43 2.2 1.69 5.03 4.62 6.28 6.51 1.37 2.09 2.26 4.93 2.25 7.2-0.02 2.06-0.64 4.99-1.39 6.5-0.75 1.51-3.34 4.45-5.75 6.52-2.42 2.08-8.44 5.54-13.39 7.69-4.95 2.16-13.05 5.09-18 6.52-4.95 1.43-22.27 5.04-38.5 8.03-16.22 2.98-35.58 6.31-43 7.4-7.42 1.09-19.8 2.45-27.5 3.03-7.7 0.58-19.62 1.08-26.5 1.12-6.87 0.03-15.87 0.48-20 1-4.12 0.51-28.2 1.42-53.5 2.02-25.3 0.6-61.08 1.04-79.5 0.98-18.42-0.06-51.95-0.55-74.5-1.09-22.55-0.53-50.45-1.44-62-2.02-11.55-0.58-31.8-1.68-45-2.45-13.2-0.77-30.3-1.66-38-1.99-7.7-0.33-18.27-1.27-23.5-2.09-5.22-0.83-14-2.82-19.5-4.42-5.5-1.61-14.72-3.63-20.5-4.5-5.77-0.87-13.87-2.28-18-3.14-4.12-0.86-11.32-2.66-16-4-4.67-1.34-11.65-3.91-15.5-5.71-3.85-1.8-8.97-5.04-11.37-7.21-2.4-2.17-5.05-5.29-5.88-6.94-1.03-2.06-1.33-4.57-0.94-8 0.39-3.52 1.43-6.03 3.5-8.5 1.61-1.92 4.9-4.86 7.31-6.53 2.41-1.67 7.98-4.54 12.38-6.39 4.4-1.84 10.59-3.85 13.75-4.46 3.17-0.62 5.76-1.35 5.75-1.62 0-0.27-2.12-1.85-4.7-3.5-2.59-1.65-6.92-5.02-9.63-7.5-2.71-2.48-6.41-6.52-8.21-9-1.81-2.48-4.87-7.42-6.81-11-1.94-3.58-4.78-8.98-6.3-12-1.76-3.51-2.92-7.67-3.21-11.5-0.38-5.24-0.02-6.88 2.87-13 1.83-3.85 4.03-9.02 4.9-11.48 1.37-3.86 2.36-4.87 7.09-7.26 3.03-1.53 9.1-3.54 13.5-4.47 4.4-0.93 8.23-2.03 8.5-2.45 0.28-0.41 2.75-1.44 5.5-2.29 2.75-0.84 6.8-1.55 9-1.57 2.74-0.02 7.63-1.78 15.5-5.56 6.33-3.04 14.65-6.19 18.5-7.01 3.85-0.82 8.3-1.8 9.89-2.2 1.59-0.39 4.5-2.51 6.47-4.71 1.96-2.2 6.74-6.35 10.6-9.22 3.87-2.88 9.74-6.67 13.04-8.42 3.3-1.76 11.85-6.67 19-10.91 7.15-4.24 16.38-9.49 20.5-11.65 4.13-2.17 10.28-6.61 13.69-9.87 3.4-3.26 6.89-7.62 7.75-9.68 0.86-2.06 1.87-6.34 2.24-9.5 0.64-5.46 1.01-6.07 7.25-12.06 5.88-5.65 9.21-7.62 31.57-18.7 17.63-8.74 27.21-12.91 32.5-14.13 4.33-1 8.56-2.68 10-3.96 1.38-1.22 5.76-3.83 9.75-5.81 3.99-1.97 9.39-3.87 12-4.22 3.13-0.41 5.52-1.43 7-3 1.24-1.3 2.93-2.37 3.75-2.37 0.83 0 4.54-1.39 8.25-3.08 3.71-1.69 7.2-3.69 7.75-4.44 0.55-0.75 4.43-3.98 8.61-7.17 4.19-3.2 8.74-7.16 10.12-8.81 1.37-1.65 5.37-7.35 8.88-12.67 3.52-5.32 7.63-11.73 9.14-14.25 1.51-2.52 3.31-4.57 4-4.55 0.69 0.02 2.15-0.89 3.25-2.03 1.1-1.14 2.45-2.06 3-2.05 0.55 0.01 2.53-1.89 4.4-4.22 3.01-3.76 3.32-4.68 2.73-8.23-0.37-2.2-0.28-6.02 0.19-8.5 0.51-2.65 0.49-5.53-0.06-7-0.51-1.37-2.14-3.85-3.63-5.5-1.49-1.65-4.16-5.93-5.94-9.5-1.93-3.86-3.85-9.95-4.74-15-1.13-6.4-1.43-14.79-0.95-59.5l-3.79-9c-2.69-6.4-4.09-11.6-4.85-18-0.88-7.47-0.72-12.23 0.95-28 1.61-15.23 1.78-19.75 0.85-22.75-0.64-2.06-1.72-3.75-2.41-3.75-0.69 0-1.7 0.9-2.25 2q-1.01 2-6.25 3.14c-2.89 0.62-7.72 0.92-10.75 0.66-3.21-0.27-7.16-1.43-9.5-2.8-2.2-1.28-4.8-3.04-5.78-3.91-0.98-0.88-1.77-2.6-1.75-3.84 0.02-1.35-0.57-2.25-1.47-2.25-0.82 0-1.5-0.45-1.5-1 0-0.55 0.76-1.11 1.69-1.25 1.2-0.18 0.84-0.65-1.25-1.63-2.65-1.24-2.87-1.22-2.19 0.25q0.77 1.65-0.5 1.14c-0.69-0.27-2.26-2.75-3.5-5.5-1.92-4.27-2.65-5.01-5-4.98-1.51 0.02-3.5-0.77-4.41-1.75-0.92-0.98-3.33-5.83-5.36-10.78-2.04-4.95-4.21-9.62-4.84-10.38-0.81-0.99-0.9-4.42-0.31-12 0.46-5.84 1.23-12.65 1.72-15.12 0.5-2.47 1.16-4.72 1.47-5 0.32-0.28 1.45 0.06 2.53 0.75 1.56 1 2.03 1 2.37 0 0.22-0.69 0.68-4.85 1.02-9.25 0.33-4.4 0.93-8.35 1.33-8.79 0.4-0.43 1.86-0.53 3.23-0.23q2.5 0.56 3.17 3.29c0.36 1.5 0.25 2.84-0.25 2.98-0.51 0.14-1.44 1.26-3.21 4.75l2.27-2c1.26-1.1 3.28-3.57 4.5-5.5 2.05-3.22 2.88-3.63 10.62-5.2 4.62-0.94 10.43-2.02 12.9-2.4 3.68-0.56 5.09-0.3 7.75 1.46 1.79 1.17 3.48 2.14 3.75 2.14 0.28 0 0.28-0.9 0-2-0.28-1.1 0.21-2.67 1.07-3.5 0.87-0.82 2.44-1.5 3.5-1.5 1.06 0 3.39 1.49 5.18 3.32 2.56 2.62 4.31 3.44 8.25 3.87 4.22 0.46 5.32 0.22 7.02-1.57 1.12-1.17 6.29-3.69 11.5-5.62 8.5-3.14 10.55-3.51 19.84-3.56 8.05-0.04 10.72-0.4 12-1.64 0.9-0.88 2.5-1.75 3.56-1.95 1.33-0.24 2.24-1.71 3-4.85 0.59-2.47 1.64-4.5 2.32-4.5 0.68 0 2.56 1.12 4.18 2.5 2.87 2.43 2.91 2.58 1.39 5.5-0.86 1.65-1.31 2.78-1 2.5 0.3-0.28 1.9-2.3 3.55-4.5 2.88-3.85 3.4-4.08 13.32-6.14 5.68-1.18 11.56-2.19 13.07-2.25zm-126.5 12.91c2.89-0.01 5.93 0.2 6.75 0.48 0.83 0.28 1.5 1.18 1.5 2 0 0.89-0.61 1.3-1.5 1-0.82-0.28-1.32-0.16-1.1 0.25 0.23 0.41-1.91 0.78-4.75 0.81-3.33 0.04-5.76-0.49-6.88-1.5-1.3-1.17-1.43-1.74-0.5-2.29 0.68-0.41 3.59-0.75 6.48-0.75z"/>
		<path id="Path 2" class="s2" d="m965.51 830.75c-1.05 2.61-3.78 6.77-6.07 9.25-2.42 2.62-6.5 5.54-9.78 7-3.09 1.38-5.63 2.73-5.64 3-0.01 0.27 2.12 1.38 4.73 2.45 2.61 1.07 6.77 3.82 9.25 6.11 2.62 2.42 5.54 6.5 7 9.78 1.38 3.09 2.73 5.63 3 5.64 0.27 0.01 1.38-2.12 2.45-4.73 1.07-2.61 4-6.91 6.5-9.55 2.72-2.87 6.66-5.68 9.82-7 2.9-1.21 5.25-2.43 5.23-2.7-0.02-0.27-2.57-1.62-5.66-3-3.28-1.46-7.36-4.38-9.78-7-2.29-2.48-4.88-6.64-5.75-9.25-0.88-2.61-2-4.75-2.5-4.75-0.49 0-1.75 2.14-2.8 4.75z"/>
		<path id="Path 3" class="s0" d="m543.33 326.5c0 3.85 0.18 5.2 0.4 3 0.21-2.2 0.21-5.35-0.01-7-0.22-1.65-0.4 0.15-0.39 4zm-23.33 242c1.92 1.94 3.61 3.53 3.75 3.52 0.14-0.01 0.14-0.71 0-1.56-0.14-0.85-1.38-2.42-2.75-3.48-1.38-1.06-2.95-1.95-3.5-1.98-0.55-0.02 0.58 1.56 2.5 3.5zm116 5.06c-3.03 1.29-9.1 3.04-13.5 3.9-4.4 0.86-10.36 2.01-13.25 2.55-3.04 0.57-5.24 1.52-5.22 2.24 0.02 0.69-3.91 3.5-8.75 6.24-4.83 2.74-10.77 6.79-13.19 9-2.81 2.55-6.08 4.41-9 5.12-4.22 1.02-4.63 1.4-5.09 4.64-0.28 1.95-0.88 3.92-1.34 4.39-0.46 0.47-3.37 2.21-6.48 3.86-3.28 1.75-6.6 4.46-7.94 6.5-1.27 1.92-4.49 5.75-7.17 8.5-2.75 2.82-9.1 7.4-14.58 10.5-5.99 3.39-13.04 8.56-18.42 13.5-4.79 4.4-9.81 8.53-11.14 9.18-1.34 0.65-5.36 2.43-8.93 3.96-3.58 1.53-6.84 3.36-7.25 4.07-0.41 0.71-1.31 1.3-2 1.31-0.69 0.01-2.52 1.25-4.07 2.75-2.37 2.29-3.88 2.79-9.5 3.14-5.41 0.33-7.49-0.01-10.93-1.75-3.07-1.56-6.12-2.17-11-2.19-5.16-0.03-7.34 0.41-9.25 1.88-1.38 1.06-5.76 2.88-9.75 4.04-7.11 2.07-7.26 2.18-7.84 5.86-0.32 2.06-0.21 4.1 0.25 4.52 0.46 0.43 8.71 0.26 18.34-0.37 9.62-0.63 20.42-0.82 24-0.44 3.57 0.39 34.62 0.89 69 1.11 34.37 0.23 67 0.88 72.5 1.46 5.5 0.58 22.15 1.48 37 2 14.85 0.52 29.14 1.18 31.75 1.46 4.45 0.48 4.82 0.34 5.86-2.24 0.61-1.51 1.51-3.54 2-4.5 0.49-0.96 0.89-2.65 0.89-3.75 0-1.1-0.7-3.69-1.56-5.75-0.86-2.06-1.96-3.98-2.43-4.25-0.47-0.27-2.98-6.12-5.56-13l-4.7-12.5c-1.07-27.98-1.82-35.9-2.54-37.25-0.67-1.24-1.61-2.36-2.1-2.5-0.49-0.14-2.22-2.5-3.84-5.25-1.61-2.75-4.81-9.39-7.1-14.75-2.29-5.36-4.17-10.2-4.17-10.75 0-0.55-1.13-2.8-2.5-5-1.38-2.2-2.84-3.95-3.25-3.89-0.41 0.07-3.23 1.17-6.25 2.45zm-429.99 53.62c-2.47 1.61-4.39 3.13-4.25 3.37 0.13 0.25 3.95-0.84 8.49-2.42 4.54-1.57 9.15-3.06 10.25-3.3 1.1-0.24-0.7-0.47-4-0.51-5.01-0.05-6.74 0.42-10.49 2.86z"/>
		<path id="Path 4" class="s1" d="m672.56 294.26c0.52 1.23 0.9 4.04 0.86 6.24-0.04 2.23-1.5 7.1-3.28 11-1.76 3.85-3.2 7.23-3.2 7.5 0 0.27 0.96-0.4 2.13-1.5 1.18-1.1 2.95-3.57 3.93-5.5 0.98-1.93 2.31-5.52 2.94-8 0.81-3.12 0.86-5.42 0.16-7.5-0.55-1.65-1.78-3.33-2.74-3.74-1.49-0.64-1.61-0.42-0.8 1.5zm-80.81 71.41c-0.96 2.66-4.59 9.56-8.06 15.33-3.47 5.77-8.94 14.77-12.16 20-3.22 5.23-6.46 10.96-7.19 12.75-0.74 1.79-1 3.24-0.59 3.22 0.41-0.02 1.46-0.58 2.33-1.25 0.87-0.67 5.68-7.3 10.68-14.72 5.01-7.42 10.43-16.42 12.06-20 1.62-3.57 3.51-8.98 4.2-12 0.69-3.02 1.08-6.1 0.86-6.83-0.21-0.73-1.17 0.85-2.13 3.5zm198.75 83.68c-2.75 1.28-5.67 3.1-6.5 4.04-1.07 1.22-1.15 1.69-0.25 1.65 0.69-0.02 3.61-1.16 6.5-2.53 3.39-1.61 7.02-2.5 10.25-2.51 3.21-0.01 5.86 0.61 7.41 1.74 2.33 1.7 2.4 1.7 2-0.21-0.23-1.08-1.53-2.54-2.91-3.23-1.37-0.7-4.52-1.27-7-1.28-2.63 0-6.58 0.97-9.5 2.33zm-135.5 88.83c-5.77 0.47-10.72 1.23-11 1.68-0.27 0.44-1.4 1.28-2.5 1.86-1.44 0.76 5.03 1.02 23.14 0.92 13.83-0.08 24.63-0.48 24-0.9-0.63-0.42-3.39-1.39-6.14-2.16-2.75-0.77-7.7-1.6-11-1.83-3.3-0.24-10.72-0.04-16.5 0.43z"/>
		<path id="Path 5" fill-rule="evenodd" class="s3" d="m576.46 116.02c1.4 0.54 3.36 1.77 4.36 2.73 1 0.96 1.76 2.65 1.7 3.75-0.06 1.1-0.32 2.15-0.57 2.33-0.25 0.18-3.27-0.05-6.71-0.5-4.54-0.6-6.27-1.24-6.26-2.33 0-0.82 0.68-2.51 1.51-3.75 0.83-1.24 1.96-2.03 2.51-1.75 0.55 0.28 0.98 0.06 0.96-0.48-0.02-0.63 0.86-0.63 2.5 0zm-18.21 1c0.41-0.01 1.65 0.77 2.76 1.73 1.1 0.96 2.45 3.44 3 5.5q0.99 3.75-0.01 3.25c-0.55-0.28-1.26 0.74-1.57 2.25-0.31 1.51 0.14 4.55 1 6.75 1.45 3.71 1.43 4.09-0.19 5.22-0.96 0.67-2.19 1.22-2.74 1.23-0.56 0.01-0.51-0.31 0.12-0.72 0.61-0.4 1.4-1.74 1.75-2.98 0.48-1.72 0.22-2.25-1.12-2.25-0.96-0.01-3.21-0.91-5-2-2.24-1.38-3.28-1.61-3.34-0.75-0.04 0.69-0.47-0.1-0.95-1.75-0.48-1.65-0.66-3.22-0.39-3.5 0.27-0.28 0.48 0.18 0.47 1-0.01 1.33 0.1 1.33 0.96 0 0.8-1.25 0.98-1.16 1.02 0.5 0.04 1.83 0.12 1.85 1.01 0.25 0.53-0.96 0.69-2.54 0.34-3.5-0.54-1.5-0.75-1.54-1.48-0.25q-0.85 1.46-0.87 0.25c-0.01-0.73-0.54-0.94-1.26-0.5-0.9 0.55-0.98 0.34-0.29-0.75 0.52-0.82 1-2.34 1.07-3.38 0.07-1.03 1.21-2.71 2.54-3.72 1.33-1.02 2.76-1.87 3.17-1.88zm-15.27 6.24c0.84 0.13 2.04 1.14 2.68 2.24 0.64 1.1 0.98 2.34 0.75 2.75-0.22 0.41-1.31-0.37-2.41-1.75-1.87-2.34-2.16-2.41-4.5-1-1.38 0.82-2.84 1.5-3.25 1.49-0.41 0 0.59-0.89 2.23-1.98 1.65-1.09 3.67-1.88 4.5-1.75zm29.7 6.06c2.1 0.17 4.38 0.62 5.07 1 0.69 0.37 1.7 0.46 2.25 0.18 0.55-0.28 1.22-0.05 1.5 0.5 0.27 0.55 1.17 0.78 2 0.5 0.83-0.28 1.5-0.05 1.5 0.5 0 0.55 0.9 1 2 1 1.1 0 3.02 1.01 4.27 2.25 1.46 1.44 2.16 3.15 1.94 4.75-0.18 1.38-0.03 3.18 0.33 4 0.37 0.82 0.79 3.52 0.95 6 0.15 2.48-0.12 5.96-0.61 7.75-0.48 1.79-1.33 3.25-1.88 3.25-0.55 0-0.99 0.34-0.97 0.75 0.01 0.41-1.84 2.77-4.12 5.25-2.28 2.48-5.22 6.19-6.53 8.25-1.73 2.73-2.13 4.22-1.45 5.5 0.52 0.96 0.92 2.65 0.9 3.75-0.02 1.1 0.51 4.7 1.18 8 0.67 3.3 1.35 6.68 1.52 7.5 0.18 0.82 0.35 1.61 0.39 1.75 0.05 0.14 0.19 0.66 0.33 1.17 0.14 0.5 0.56 1.29 0.95 1.75 0.38 0.45 0.5 1.39 0.25 2.08-0.25 0.69 0 1.25 0.55 1.25 0.55 0 0.77 0.56 0.48 1.25-0.29 0.69 1.51 5.19 4 10 2.49 4.81 4.82 8.41 5.18 8 0.36-0.41 0.36-0.19 0 0.5-0.36 0.69 0.53 3.16 1.98 5.5 1.46 2.34 2.77 4.93 2.93 5.75 0.15 0.82 0.36 1.73 0.47 2 0.1 0.27 0.3 0.95 0.42 1.5 0.13 0.55 0.3 2.91 0.39 5.25 0.08 2.34 0.49 4.07 0.9 3.85 0.41-0.22 0.75 2.48 0.75 6 0 3.52-0.34 6.4-0.75 6.4-0.41 0-0.76 1.91-0.77 4.25 0 2.34 0 5.49 0 7 0.02 2.09-0.46 2.75-1.98 2.75-1.1 0-1.99 0.56-1.97 1.25 0.01 0.69 2.95 4.18 6.52 7.75 3.57 3.57 6.71 7.06 6.97 7.75 0.27 0.69 0.93 1.25 1.48 1.25 0.55 0 1 0.68 1 1.5 0 0.82 0.45 1.5 1 1.5 0.55 0 0.91 0.34 0.79 0.75-0.11 0.41 0.87 3.45 2.18 6.75 2 5.05 2.38 7.74 2.37 17-0.01 6.92-0.51 12.11-1.34 14-0.73 1.65-1.25 3.34-1.16 3.75 0.09 0.41-0.29 0.75-0.84 0.75-0.55 0-1 0.68-1 1.5 0 0.82 0.45 1.5 1 1.5 0.55 0 2.03-1.24 3.29-2.75 1.26-1.51 2.58-3.43 2.94-4.25 0.48-1.14 1.93-0.16 5.97 4 2.93 3.02 6.31 7.52 7.52 10 1.21 2.48 2.9 7.2 3.76 10.5 0.96 3.64 1.46 9.04 1.3 13.75-0.16 4.27-0.62 7.75-1.03 7.75-0.41 0-0.53 0.9-0.25 2 0.27 1.1 0.05 2-0.5 2-0.55 0-1.48 1.69-2.07 3.75-0.59 2.06-0.81 3.98-0.49 4.25 0.32 0.27 1.48-0.51 2.57-1.75 1.09-1.24 2.44-2.25 2.99-2.25 0.55 0 1.95 3.26 3.11 7.25 1.16 3.99 3.41 10.06 5 13.5 1.59 3.44 2.66 6.25 2.39 6.25-0.28 0-2.05-3.26-3.93-7.25-2.95-6.22-3.45-6.82-3.52-4.25-0.04 1.65 1.07 7.5 2.47 13 1.4 5.5 3.98 12.48 5.73 15.5 1.75 3.02 5.45 7.78 8.22 10.56 2.77 2.78 6.83 6.46 9.03 8.18 2.7 2.11 3.35 3.01 2 2.77-1.1-0.2-2.56-0.39-3.25-0.43-0.69-0.05-1.03-0.53-0.75-1.08 0.27-0.55-0.06-0.89-0.75-0.75-0.69 0.14-1.1-0.42-0.92-1.25 0.19-0.83-0.04-1.16-0.5-0.75-0.46 0.42-1.61-0.03-2.56-1-0.95-0.96-1.4-2.2-1-2.74 0.44-0.59 0.23-0.69-0.52-0.25-0.96 0.57-0.85 1.35 0.5 3.38 0.96 1.45 3.1 3.58 4.75 4.72 1.65 1.15 5.47 4.68 8.5 7.85 3.02 3.18 6.06 5.78 6.75 5.78 0.69 0.01 1.02-0.44 0.75-0.99-0.28-0.55 0.17-1.23 1-1.5 0.83-0.27 2.4-0.05 3.5 0.5 1.1 0.55 2.56 0.67 3.25 0.26q1.24-0.73 0.5 0.5c-0.47 0.77-0.18 1.24 0.75 1.24 0.83 0 1.35-0.56 1.17-1.25-0.18-0.69-1.19-1.36-2.25-1.49-1.06-0.14-2.82-1.19-5.92-4.47l4 1.82c2.2 1 5.24 2.63 6.75 3.61 1.51 0.98 2.75 1.33 2.75 0.78 0-0.55-0.45-1.23-1-1.5-0.55-0.27-1-1.06-1.01-1.75 0-0.69 0.59-0.35 1.32 0.75 0.72 1.1 2.48 4.7 3.89 8 1.42 3.3 2.85 7.69 3.19 9.75 0.48 2.94 0.29 3.75-0.89 3.75-0.83 0-2.63-0.45-4-1-1.38-0.55-2.5-0.77-2.5-0.5 0 0.27 1.23 1.51 2.73 2.75 1.5 1.24 3.08 2.14 3.5 2 0.42-0.14 0.54 0.2 0.27 0.75-0.28 0.55 0.29 1.3 1.25 1.66 0.96 0.36 2.2 0.55 2.75 0.42 0.55-0.14 0.77 0.01 0.5 0.33-0.28 0.32 1.97 3.21 5 6.41 3.02 3.2 6.4 7.55 7.5 9.67 1.1 2.12 2.01 4.11 2.02 4.43 0 0.32 0.31 1.03 0.67 1.58 0.36 0.55 1.13 3.92 1.72 7.5 0.72 4.47 0.74 8.53 0.04 13-0.56 3.58-2.46 9.54-4.23 13.26-2.67 5.59-2.92 6.66-1.47 6.25 1.1-0.32 2.28 0.32 3.18 1.74 0.78 1.24 2.12 4.95 2.98 8.25 0.85 3.3 1.55 10.05 1.55 15 0.01 5.74-0.71 11.72-1.96 16.5-1.08 4.13-1.97 8.29-1.98 9.25-0.02 1.35 0.49 1.59 2.23 1.07 1.61-0.49 2.04-0.35 1.5 0.5-0.41 0.65-0.41 1.17 0 1.15 0.41-0.01 1.99 3.02 3.5 6.75 1.51 3.73 3.18 8.8 3.72 11.28 0.54 2.48 0.99 8.21 1.01 12.75 0.01 4.54-0.86 17.59-1.93 29-1.07 11.41-2.07 24.13-2.22 28.25-0.24 6.61-0.07 7.47 1.45 7.25 0.95-0.14 1.72 0.2 1.72 0.75 0 0.55 1.35 1.23 3 1.5 1.65 0.27 3.34 0.46 3.75 0.41 0.41-0.04 0.97 0.38 1.25 0.93 0.27 0.56 1.62 1.22 3 1.46 1.37 0.25 5.87 2.02 10 3.94 4.12 1.92 8.62 3.84 10 4.27 1.37 0.43 5.09 2.41 8.25 4.39 3.16 1.98 5.75 3.94 5.75 4.35 0 0.41-0.9 0.64-2 0.5-1.1-0.14-2-0.59-2-1 0-0.41-0.45-0.75-1-0.75-0.55 0-1.67-0.67-2.5-1.5-0.83-0.83-1.16-1.8-0.75-2.16 0.41-0.36-0.04-0.36-1 0-1.21 0.46-1.52 0.29-1-0.52 0.54-0.85 0.11-0.99-1.5-0.5-1.53 0.46-3.39-0.04-5.78-1.57-1.95-1.24-3.86-1.92-4.25-1.51-0.4 0.41-1.3 0.19-2.01-0.5-0.72-0.68-1.26-0.79-1.21-0.24 0.05 0.58-0.45 0.53-1.21-0.13-0.84-0.74-2.08-0.83-3.54-0.25-1.24 0.48-2.03 1.33-1.75 1.88 0.27 0.55 1.17 1 2 1 0.83 0 1.5 0.45 1.5 1 0 0.55 1.35 1.45 3 2 1.65 0.55 3.55 0.66 4.23 0.25 0.87-0.53 1.02-0.24 0.5 1-0.58 1.39-0.37 1.6 1.02 1.02 1.07-0.45 1.48-0.35 1.04 0.25-0.39 0.54 0.4 1.54 1.75 2.23 1.35 0.69 2.8 1.23 3.21 1.21 0.41-0.01-0.38-0.67-1.75-1.46-1.38-0.79-1.94-1.45-1.25-1.46 0.69-0.02 2.71 0.69 4.5 1.58 1.79 0.89 4.27 2.57 5.53 3.75 1.25 1.17 2.26 2.92 2.25 3.88-0.02 0.96-0.7 1.98-1.53 2.25-0.83 0.27-2.29 0.48-3.25 0.44-0.96-0.03-2.76-1.38-4-3-1.24-1.61-1.8-2.94-1.25-2.94 0.55 0 0.72-0.56 0.37-1.25-0.49-1-0.75-0.99-1.25 0.01-0.47 0.96-1.7 0.72-5.08-1-2.45-1.24-5.15-2.85-6-3.58-0.85-0.73-2.1-1.07-2.79-0.75-0.69 0.31-1.24 0.23-1.23-0.18 0.01-0.41-2.47-1.54-5.5-2.5-3.04-0.96-5.97-1.52-6.52-1.25-0.55 0.27-1 1.17-1 2 0 0.83 1.46 2.13 3.25 2.91 1.79 0.78 3.59 1.23 4 1 0.41-0.23 0.74-0.07 0.72 0.34-0.02 0.41 3.47 2.29 7.75 4.18 4.38 1.93 8.87 4.72 10.28 6.38 2.47 2.92 2.48 2.97 0.5 4.34-1.1 0.76-3.35 1.3-8 1.03l3-0.33c1.65-0.18 3.52-0.89 4.16-1.59 0.91-1 0.5-1.19-2-0.9-2.16 0.24-8.44-1.73-19.91-6.25-9.43-3.72-17.3-6.29-18-5.87q-1.24 0.73-0.5-0.5c0.54-0.89-0.87-1.55-5-2.33-3.16-0.6-7.1-0.84-8.75-0.52-1.65 0.32-5.48 2.13-8.5 4.03-3.03 1.89-5.61 3.25-5.75 3.01-0.14-0.24 0.2-1.33 0.75-2.43 0.55-1.1 0.77-2.67 0.5-3.5-0.38-1.14-1.81-0.43-6 3-3.03 2.48-6.06 4.51-6.75 4.52-0.69 0.01 0.1-1.35 1.75-3.02 1.65-1.67 3.56-3.03 4.25-3.02 0.69 0.01 1.7-1.1 2.25-2.48 0.63-1.57 1.56-2.31 2.5-2 0.83 0.27 1.45 0.16 1.39-0.25-0.06-0.41 0.25-1.87 0.68-3.25 0.44-1.37 0.62-2.5 0.41-2.5-0.22 0 0.94-1.34 2.57-2.97 1.62-1.63 3.62-3.08 4.45-3.21 0.83-0.13 2.09-1.04 2.8-2.03 1.09-1.5 1.05-1.83-0.25-2.04-0.86-0.14-1.55-1.25-1.56-2.5-0.01-1.24-0.26-4.05-0.57-6.25-0.48-3.51-0.4-3.75 0.72-2 0.7 1.1 1.57 3.8 1.94 6 0.64 3.81 0.68 3.72 0.96-2 0.16-3.3 0.22-7.69 0.13-9.75-0.13-2.93 0.16-3.64 1.33-3.25 0.88 0.29 1.69-0.23 1.95-1.25 0.25-0.96 0.36-3.95 0.25-6.63-0.12-2.89-0.71-5.03-1.45-5.25-0.69-0.2-1.25-1.27-1.25-2.37 0-1.1-0.45-1.77-1-1.5-0.57 0.28-0.76-0.26-0.45-1.25q0.54-1.74-1-1.75c-0.85 0-1.6 0.45-1.66 1-0.06 0.55-0.02 2.13 0.1 3.5 0.11 1.38-0.01 2.27-0.28 2-0.26-0.27-1.93-4.1-3.69-8.5-1.77-4.4-3.5-8.67-3.86-9.5-0.35-0.83 0.6-0.26 2.1 1.25 1.51 1.51 2.74 3.2 2.74 3.75 0 0.55 0.45 1 1 1 0.55 0 0.77-0.9 0.5-2-0.28-1.1 0.06-2.76 0.75-3.69 0.69-0.93 0.8-1.43 0.25-1.11-0.61 0.36-0.91-1.01-0.77-3.56 0.12-2.27 0.3-7.74 0.4-12.14 0.09-4.4-0.13-9.46-0.48-11.25-0.36-1.79-1.32-3.48-2.15-3.75-0.83-0.27-1.95-0.27-2.5 0-0.55 0.27-1.23 0.05-1.5-0.5-0.28-0.55-1.17-0.77-2-0.5-1.11 0.37-1.5-0.28-1.5-2.5 0-1.65-0.38-3.11-0.85-3.25-0.46-0.14-3.91-4.08-7.66-8.75-3.75-4.67-7.29-9.17-7.86-10-0.58-0.83 0.4-0.15 2.18 1.5 2.59 2.4 3.23 2.65 3.21 1.25-0.01-0.96 0.44-1.86 1-2 0.59-0.15 0.28-1.73-2.52-7.39l3.75 3.82c2.06 2.1 5.55 4.72 7.75 5.82 2.2 1.1 4.34 2.01 4.75 2.01 0.41 0.01-1.37-2.13-3.95-4.75-2.59-2.62-5.66-7.01-6.84-9.76-1.17-2.75-1.86-5.56-1.54-6.25 0.32-0.69 0.13-1.02-0.42-0.75-0.55 0.27-1.45-1.75-2-4.5-0.55-2.75-1-6.46-1.01-8.25-0.01-1.79 0.45-5.73 1.01-8.75 0.56-3.02 1.67-5.95 2.47-6.5 0.82-0.56 1.47-2.64 1.49-4.75 0.02-2.14-0.5-3.93-1.21-4.17-0.69-0.23 0.21-0.46 2-0.5 2.28-0.06 3.03-0.44 2.5-1.29-0.54-0.88-0.13-1.02 1.5-0.5 1.31 0.41 2.25 0.29 2.25-0.29 0-0.55-2.03-1.9-4.5-3-2.48-1.1-4.5-2.23-4.5-2.5 0-0.27 0.79-0.27 1.75 0 1.44 0.42 1.4 0.24-0.25-1.01-1.1-0.84-2.9-1.51-4-1.49-1.24 0.02-1.56 0.31-0.85 0.77 0.64 0.4-9.04 0.72-21.5 0.71-22.08-0.02-22.77-0.09-27.61-2.5-2.74-1.37-7.64-5.18-10.9-8.48-3.27-3.3-7.6-8.48-9.64-11.5-2.04-3.02-4.9-7.75-8.99-15.5l0.41 5c0.22 2.75 1.82 8.38 3.55 12.5 1.73 4.13 5.41 10.88 8.17 15 2.76 4.13 4.2 6.72 3.19 5.78-1.01-0.95-2.06-1.76-2.33-1.79-0.28-0.03-3.42 2.8-7 6.3-4.8 4.71-7.94 6.86-12 8.26-3.03 1.04-6.85 2.92-8.5 4.19-1.65 1.26-3.45 2.64-4 3.07-0.55 0.42-4.26 1.77-8.25 2.98-3.99 1.22-7.48 2.21-7.75 2.21-0.28 0-1.74 0.62-3.25 1.37-1.51 0.76-4.21 3.01-6 5-1.79 2-3.7 3.63-4.25 3.63-0.55 0-0.78 0.45-0.5 1 0.27 0.55 2.48 0.89 4.89 0.75 2.41-0.14 3.88 0.08 3.25 0.48-0.63 0.41-2.27 0.73-3.64 0.71-2.29-0.03-2.38 0.12-1.02 1.77 1.41 1.7 1.39 1.71-0.5 0.11-1.09-0.92-5.36-4.87-9.48-8.77-7.25-6.86-7.4-7.1-4.5-7.06 1.65 0.02 5.02-0.66 7.5-1.51 2.47-0.85 6.52-3.04 9-4.87 2.47-1.83 5.37-4.86 8.38-10.11l-3.94 3.42c-2.17 1.88-6.64 4.69-9.94 6.23-3.3 1.54-8.25 3.1-11 3.45-4.49 0.58-5.28 0.38-7.75-1.98-1.51-1.44-2.75-2.85-2.75-3.12 0-0.27-2.14-3.21-4.75-6.53-2.61-3.32-5.09-6.02-5.5-6-0.41 0.02-0.53-0.42-0.25-0.97 0.27-0.55-0.17-1.23-1-1.5-0.83-0.27-1.28-0.95-1-1.5 0.27-0.55-0.29-1.44-1.25-1.97-0.96-0.53-1.41-0.98-1-1 0.41-0.02-0.44-1.94-1.9-4.28-1.46-2.34-3.07-4.48-3.58-4.75-0.52-0.27-0.9-0.84-0.86-1.25 0.05-0.41-1.09-3.34-2.54-6.5-2.38-5.23-2.5-6.02-1.25-8.75 0.75-1.65 3.84-5.5 6.87-8.55 3.03-3.06 7.53-6.54 10.01-7.75 3.68-1.8 4.04-2.19 2-2.18-1.38 0.01-4.3 0.83-6.5 1.82-2.2 0.98-5.8 3.38-8 5.32-2.2 1.95-4.68 4.97-5.5 6.73-0.83 1.75-1.84 3.17-2.25 3.15-0.41-0.02-1.48-1.73-2.37-3.79-0.89-2.06-1.76-4.42-1.93-5.25-0.16-0.83-0.33-1.61-0.37-1.75-0.05-0.14-0.21-0.59-0.38-1-0.16-0.41-0.95-3.12-1.75-6.01-0.8-2.9-1.68-5.26-1.95-5.26-0.28 0.01-0.61-1.33-0.75-2.98-0.14-1.65 0.43-4.01 1.26-5.25 0.83-1.24 1.5-1.91 1.5-1.5-0.01 0.41 2.35-1.16 5.24-3.49 2.89-2.33 5.59-4.8 6-5.5 0.41-0.69 1.42-1.26 2.25-1.26 0.83 0 1.84-0.64 2.25-1.43 0.41-0.78 0.99-1.35 1.28-1.25 0.29 0.1 2.42-1.17 4.74-2.82 2.31-1.65 3.88-3.41 3.47-3.91-0.41-0.5-0.29-0.62 0.26-0.27 0.55 0.35 3.34-1.72 6.21-4.59 2.87-2.88 4.89-5.64 4.5-6.14-0.39-0.5-0.26-0.63 0.29-0.28 0.55 0.34 2.58-0.52 4.5-1.92 1.92-1.4 4.74-3.18 6.25-3.97 1.51-0.78 2.77-1.31 2.79-1.17 0.02 0.14-2.02 1.6-4.52 3.25-2.51 1.65-4.55 3.34-4.54 3.75 0.01 0.41 0.47 0.52 1.02 0.25 0.55-0.27 1.39 0.06 1.88 0.75 0.48 0.69 2.84 1.87 5.25 2.63 2.4 0.76 5.16 1.1 6.12 0.75 1.07-0.38 1.76-0.14 1.77 0.62q0.02 1.22 0.89-0.25c0.48-0.83 0.67-2.4 0.41-3.5-0.25-1.1 1.03 0.67 2.86 3.94 1.83 3.27 6.62 9.34 10.66 13.5 7.09 7.3 7.18 7.35 2.49 1.56-2.67-3.3-5.64-7.46-6.6-9.25-0.95-1.79-1.62-3.26-1.48-3.28 0.14-0.01 1.81 2.12 3.73 4.75 1.91 2.63 5.28 6.71 7.5 9.07 2.21 2.36 3.57 4.25 3.02 4.21-0.55-0.05-0.33 0.66 0.5 1.58 0.83 0.91 2.74 2.28 4.25 3.04 1.51 0.76 2.75 1.15 2.75 0.88 0-0.27-1.46-1.25-3.25-2.16-1.79-0.91-2.69-1.81-2-2 0.82-0.22 0.25-1.62-1.66-4.09-1.6-2.06-4.94-7.58-7.41-12.25-2.48-4.67-5.23-10.98-6.11-14-0.87-3.02-1.57-6.4-1.55-7.5 0.03-1.62 0.21-1.71 0.9-0.5 0.47 0.83 1.12 3.3 1.45 5.5 0.33 2.2 1.3 4.67 2.16 5.5 0.86 0.83 1.54 2.06 1.51 2.75-0.02 0.69 0.41 1.25 0.96 1.25 0.58 0 0.37-1.76-0.52-4.25-0.84-2.34-1.48-4.7-1.43-5.25 0.05-0.55 0.49-0.1 0.98 1 0.57 1.27 0.64 0.07 0.18-3.27-0.53-3.93-0.39-5.26 0.54-5.25 0.69 0.01 1.2-0.99 1.14-2.23-0.06-1.24 0.4-4.5 1.02-7.25 0.62-2.75 1.23-6.01 1.36-7.24 0.13-1.23-0.11-2.24-0.52-2.25-0.41 0-1.65 1.79-2.75 3.99-1.1 2.2-2 4.45-2 5 0 0.55-0.67 1.67-1.5 2.5-1.07 1.07-1.5 1.14-1.51 0.25 0-0.69 0.66-2.15 1.47-3.25 0.81-1.1 1.15-2.35 0.76-2.78-0.4-0.43-0.16-0.76 0.53-0.75 0.69 0.02 1.25-0.64 1.25-1.47 0-0.83 0.88-2.29 1.95-3.25 1.08-0.96 1.75-2.09 1.5-2.5-0.25-0.41 0-0.75 0.55-0.75 0.55 0 1-0.45 1-1 0-0.55 1.13-2.24 2.51-3.75 1.38-1.51 2.28-2.86 2-3-0.28-0.14 0.58-1.49 1.92-3 1.34-1.51 3.14-3.54 4-4.5 0.86-0.96 1.34-1.75 1.07-1.75-0.28 0 0.29-0.83 1.25-1.84 0.96-1.01 2.2-1.6 2.75-1.31 0.55 0.29 0.33-0.31-0.5-1.35-1.3-1.63-1.3-1.76-0.02-0.94 1.16 0.74 1.32 0.57 0.75-0.81-0.41-0.99-0.29-1.75 0.27-1.75 0.55 0 0.69-0.56 0.31-1.25-0.55-0.99-0.39-0.99 0.75-0.03 1.2 1.02 1.65 0.52 2.71-3 1.14-3.82 1.11-4.08-0.3-2.72-0.86 0.82-1.54 1.16-1.51 0.75 0.02-0.41 0.72-3.34 1.55-6.5 0.82-3.16 1.51-7.32 1.53-9.25 0.02-3.43-0.02-3.46-2.01-1.75-1.25 1.08-1.8 2.42-1.44 3.5q0.59 1.74-0.25 0.47c-0.65-0.98-1.3-0.8-2.84 0.78-1.1 1.14-2.45 2.04-3 2-0.55-0.03-0.21-0.5 0.75-1.03 0.96-0.53 2.42-2.32 3.25-3.97 0.83-1.65 1.5-3.23 1.5-3.5 0-0.27-0.34-0.32-0.75-0.1-0.41 0.21-1.31-0.24-2-1-0.69-0.77-0.91-1.59-0.5-1.83 0.41-0.23-0.83-0.92-2.75-1.53-1.92-0.61-4.41-1.88-5.53-2.82-1.11-0.95-3.19-3.29-4.62-5.22-1.42-1.93-2.87-5.3-3.22-7.5-0.35-2.2-0.9-5.12-1.23-6.5q-0.6-2.49 1.6 1.5c1.21 2.2 3.62 5.47 5.35 7.26 1.73 1.79 5.4 4.45 13.15 8.59l-4.45-4.93c-2.45-2.7-5.47-7.17-6.72-9.92-1.24-2.75-2.69-8.15-3.22-12-0.6-4.36-0.61-9.35-0.03-13.25 0.5-3.44 1.37-7.15 1.92-8.25 0.55-1.1 0.77-2.23 0.5-2.5-0.28-0.27-1.57 0.96-2.88 2.75-1.31 1.79-3.16 4.82-4.12 6.75-0.95 1.93-2.08 6.2-2.49 9.5-0.58 4.58-0.77 5.06-0.8 2-0.02-2.2 0.28-6.7 0.66-10 0.53-4.49 0.24-7.77-1.16-13-1.02-3.85-1.98-8.57-2.12-10.5-0.14-1.93-0.56-4.74-0.92-6.25-0.37-1.51-1.01-2.76-1.42-2.77-0.41-0.01-0.61-1.25-0.43-2.75 0.21-1.78-0.57-3.86-2.25-5.98-1.41-1.79-2.35-3.7-2.07-4.25 0.27-0.55 0.05-1-0.5-1-0.55 0-1.6-0.56-2.34-1.25-0.73-0.69-1.18-2.26-1-3.5 0.19-1.24 0.11-2.25-0.16-2.25-0.28 0-0.96 1.01-2.56 4.5l0.53-2.25c0.29-1.24 0.08-2.48-0.47-2.75-0.55-0.27-0.89-1.79-0.75-3.37q0.25-2.86-1-2.5c-0.69 0.2-1.25 0.82-1.25 1.37 0 0.55-0.45 1-1 1-0.65 0-0.81-6.05-0.45-17.25 0.42-12.91 0.27-16.87-0.57-15.75-0.86 1.14-0.99-0.18-0.57-5.5 0.31-3.85 0.83-11.95 1.17-18 0.42-7.51 0.24-11.95-0.57-14-0.65-1.65-2.05-3.56-3.1-4.25-1.05-0.69-2.36-2.15-2.91-3.25q-1-2 0-1.5c0.57 0.29 1-1 1-3 0-2.17 0.76-4.26 2-5.5 1.1-1.1 3.91-2.45 6.25-3 2.34-0.55 5.26-1.9 6.5-3q2.26-2.01 1-2.42c-0.69-0.23-0.46-0.46 0.5-0.5 1.24-0.06 1.58 0.43 1.16 1.67-0.32 0.96-0.83 3.1-1.13 4.75-0.32 1.74-0.08 3.32 0.58 3.75 0.72 0.47 1.58-0.45 2.35-2.5 0.66-1.79 2.86-5.05 4.88-7.25 2.07-2.25 5.8-4.83 8.54-5.89 2.68-1.05 5.66-2.73 6.62-3.75 1.68-1.79 1.64-1.86-1-1.83-1.51 0.01-4.66-1.34-7-3-2.64-1.88-4.47-4.07-4.83-5.78-0.32-1.51-0.31-2.97 0.02-3.25 0.34-0.27 0.6 0.51 0.59 1.75-0.02 1.61 1.32 3.11 4.72 5.27 2.61 1.66 5.87 2.99 7.25 2.96 2.18-0.06 2.05-0.23-1-1.3-1.92-0.68-4.96-2.24-6.75-3.46-1.79-1.22-3.04-2.56-2.78-2.97 0.26-0.41 0.01-1.54-0.56-2.5-0.93-1.56-0.63-1.72 2.77-1.43zm104.37 156.95c1.35-0.09 3.91 0.94 5.7 2.28 2.15 1.62 3.25 3.3 3.25 4.95 0 1.38-0.45 2.73-1 3-0.55 0.27-0.86 0.84-0.69 1.25 0.18 0.41-0.93 2.1-5.25 6.75l-0.78-4.27c-0.43-2.35-1.12-4.26-1.53-4.25-0.41 0.01-0.53-0.43-0.25-0.98 0.27-0.55-0.51-1.66-1.75-2.46-1.24-0.8-2.59-1.25-3-1-0.41 0.25-0.28 1.7 0.3 3.21 0.58 1.51 0.87 4.1 0.65 5.75-0.36 2.67-0.42 2.59-0.55-0.75-0.08-2.06-0.49-3.77-0.9-3.79-0.41-0.02-2.76 3.02-5.22 6.75-3.78 5.73-4.48 7.57-4.5 11.79-0.03 4.9 0.04 5.01 6.6 6l-3.53 3.5c-1.94 1.93-3.35 3.73-3.13 4 0.22 0.27-0.47 1.06-1.53 1.75-1.7 1.1-2.25 0.85-4.46-2-1.95-2.51-2.54-4.5-2.62-8.75-0.05-3.02 0.15-6.62 0.44-8 0.29-1.37 0.57-2.61 0.62-2.75 0.04-0.14 0.08-0.48 0.08-0.75 0-0.27 0.64-1.17 1.43-2 0.78-0.82 1.68-1.5 2-1.5 0.31 0 0.12 0.9-0.43 2q-1 2 0 2c0.55 0 1-0.45 1-1 0-0.55 0.67-1.67 1.5-2.5 0.83-0.82 1.84-1.32 2.25-1.1 0.41 0.23 0.75-0.18 0.75-0.9 0-0.92-0.52-1.04-1.75-0.4-0.96 0.49-2.31 0.86-3 0.82-1-0.06-1-0.16 0-0.5 0.69-0.23 1.02-0.87 0.75-1.42-0.3-0.6 0.18-0.7 1.21-0.25 1.41 0.62 1.58 0.37 1-1.5-0.59-1.86 0.12-2.95 4.04-6.27 2.61-2.21 5.99-4.24 7.5-4.5 1.51-0.26 2.66-0.83 2.55-1.27-0.11-0.43 0.91-0.86 2.25-0.94zm41.7 0.73c0.14 0 4.19 2.02 9 4.49 4.81 2.47 11.51 6.64 14.89 9.25 3.37 2.62 9.22 7.27 13 10.34 3.77 3.07 10.83 9.82 15.68 15 4.85 5.18 12.56 14.37 17.14 20.42 4.58 6.05 10.69 14.83 13.59 19.5 2.89 4.68 7.42 12.77 10.07 18 2.64 5.23 5.89 12.65 9.63 23.5l-9.38 8.75c-5.15 4.81-9.03 9.01-8.62 9.33 0.41 0.32 0.21 0.44-0.44 0.25-0.65-0.18-4.42 2.59-8.37 6.17-3.96 3.58-8.15 7.41-9.32 8.51-1.16 1.11-3.02 2.42-4.12 2.92-1.1 0.49-2.23 0.94-2.5 0.99-0.28 0.05-2.19 1.1-4.25 2.34-2.06 1.23-3.75 2.47-3.75 2.74 0 0.27 0.56 0.2 1.25-0.16 0.69-0.37 2.6-1.53 4.25-2.58 2.74-1.75 2.69-1.64-0.5 1.23-1.92 1.73-6.42 4.88-10 7-3.58 2.12-7.33 4.22-8.35 4.68-1.43 0.64-1.72 0.49-1.27-0.67 0.32-0.83 3.34-2.85 6.71-4.5 3.36-1.65 6.3-3.34 6.51-3.75 0.22-0.41-2.86 0.83-6.85 2.75-4.06 1.96-10.99 4.21-15.75 5.12-5.88 1.12-11.12 1.44-17 1.04-4.67-0.32-11.54-1.5-15.25-2.62-4.79-1.45-6.54-2.4-6.01-3.29q0.73-1.24-0.5-0.5c-0.68 0.41-2.79-0.04-4.69-1-1.9-0.96-3.14-2.2-2.75-2.74 0.41-0.59 0.19-0.69-0.55-0.25-0.69 0.41-2.83-0.16-4.75-1.26-2.27-1.3-3.24-2.43-2.75-3.24q0.74-1.23-0.5-0.5c-0.72 0.42-2.74-0.33-4.75-1.76-2.23-1.59-3.23-2.95-2.75-3.74 0.53-0.88 0.32-1-0.75-0.39-1.07 0.6-2.43-0.13-4.72-2.51-1.76-1.85-2.89-3.81-2.51-4.36 0.39-0.55 0.27-0.68-0.28-0.28-0.54 0.4-2-0.39-3.24-1.75-1.24-1.36-2.03-2.92-1.75-3.47 0.27-0.55-0.05-0.89-0.73-0.75-0.68 0.14-4.5-4.59-8.5-10.5-4-5.91-7.43-10.19-7.63-9.5-0.2 0.69-1.33-1.9-2.53-5.75-1.19-3.85-2.6-9.7-3.13-13-0.53-3.3-0.97-8.14-0.97-10.75-0.01-2.61 0.5-5.09 1.12-5.5 0.62-0.41 0.96-1.98 0.75-3.49-0.21-1.51-0.04-2.74 0.37-2.75 0.41-0.01 1.01-1.7 1.34-3.76 0.32-2.06 2.44-7.35 4.71-11.75 3.52-6.82 6.42-10.3 19.66-23.6 8.55-8.57 21.62-20.61 29.04-26.75 7.42-6.13 13.61-11.15 13.75-11.15zm-167.01 34.5c0.2 2.75 0.2 6.8-0.01 9-0.21 2.2-0.38-0.05-0.38-5 0.01-4.95 0.18-6.75 0.39-4zm125.26 116.94c3.57 3.25 7.4 6.81 8.5 7.91 1.1 1.1-0.25 0.16-3-2.09-2.75-2.24-6.58-5.8-8.5-7.9-1.93-2.1-0.58-1.16 3 2.08zm-6.37 4.06c2.8 2.75 4.93 5.23 4.73 5.5-0.2 0.28-1.54-0.62-2.96-2-1.43-1.37-3.55-3.85-4.73-5.5-1.31-1.85-0.18-1.08 2.96 2zm139.62-3.44c0.96-0.03 2.69 1.18 3.83 2.69 1.31 1.73 1.91 3.68 1.62 5.25-0.26 1.38-1.09 4.03-1.84 5.9-0.75 1.88-2.71 4.72-4.36 6.32-2.26 2.18-3.25 2.6-4 1.69-0.74-0.89-0.62-0.97 0.49-0.31 1.07 0.65 1.28 0.55 0.75-0.35-0.56-0.94-1.99-0.56-5.74 1.5-2.74 1.51-5.22 2.52-5.5 2.25-0.28-0.27 0.86-1.17 2.53-2 1.68-0.83 3.05-1.95 3.05-2.5 0.01-0.58-0.54-0.51-1.29 0.17-0.71 0.64-4.22 1.42-7.79 1.72-5.98 0.5-6.14 0.47-2-0.44 2.47-0.54 8.2-2.66 12.72-4.72 4.83-2.19 8.26-4.35 8.3-5.23 0.04-0.83-0.7-2.17-1.64-3-1.12-0.99-3.82-1.5-7.95-1.5-4.03 0-5.97-0.36-5.46-1 0.44-0.55 2.77-1.83 5.17-2.85 2.4-1.02 5.03-2.23 5.86-2.69 0.82-0.46 2.29-0.87 3.25-0.9zm-29.49 15.03c0.14-0.05 0.08 0.7-0.14 1.66-0.21 0.96 0.11 2.65 0.72 3.75 0.91 1.66 0.85 1.85-0.37 1.13-0.92-0.55-2.33-0.36-3.76 0.5-1.26 0.75-2.05 1.93-1.75 2.62 0.3 0.69 0.09 1.48-0.46 1.75-0.55 0.28-1.89-0.51-2.97-1.75-1.08-1.24-1.98-2.59-2-3-0.02-0.41 0.76-1.05 1.72-1.43 0.96-0.37 1.97-0.93 2.25-1.25 0.27-0.31 1.85-1.32 3.5-2.23 1.65-0.91 3.11-1.7 3.26-1.75zm-174.4 57.41c1.81 3.85 4.56 9.03 6.11 11.5 2.55 4.08 2.6 4.31 0.52 2.5-1.26-1.1-4.03-5.71-6.14-10.25-2.12-4.54-3.83-8.81-3.81-9.5 0.02-0.69 1.51 1.9 3.32 5.75zm-228.55 38.5c0.18 0-0.15 0.67-0.74 1.5-0.8 1.13-0.3 3.55 2.04 9.75 1.71 4.54 4.2 10.5 5.54 13.25 1.34 2.75 1.76 4.1 0.93 3-0.83-1.1-2.09-2.6-2.8-3.33-0.7-0.74-1.62-0.96-2.04-0.5-0.42 0.46-0.94 2.18-1.16 3.83-0.22 1.65-1.11 3.79-1.99 4.75-0.87 0.96-1.25 1.96-0.84 2.23 0.41 0.26 0.19 1.05-0.49 1.75-0.69 0.7-1.02 1.5-0.75 1.77 0.27 0.28-1 1.85-2.82 3.5-1.82 1.65-4.19 3.52-5.25 4.16-1.07 0.63-1.83 1.65-1.69 2.25 0.14 0.6-0.2 0.87-0.75 0.59-0.55-0.27-1.95 0.74-3.1 2.25-1.16 1.51-2.84 2.86-3.75 2.99-0.91 0.14-1.88 0.47-2.15 0.74-0.28 0.28-0.16 1.18 0.25 2.01 0.6 1.21 1.2 1.29 3 0.39 1.24-0.62 3.36-2.09 4.72-3.25 1.36-1.17 1.97-1.46 1.37-0.63-0.61 0.83-3.52 3.35-6.47 5.62-2.96 2.26-6.72 4.9-8.37 5.86-2.94 1.7-2.96 1.7-0.93-0.12 1.14-1.02 1.9-2.53 1.68-3.36-0.36-1.33-0.29-1.33 0.63 0q1.04 1.49 1.99 0.5c0.62-0.64 0.46-1.45-0.45-2.25-1.14-1-1.67-0.99-2.67 0.09-0.69 0.74-3.16 2.31-5.5 3.5-2.34 1.19-4.48 2.61-4.75 3.16-0.28 0.55-0.95 0.78-1.5 0.5-0.55-0.27-0.89 0.06-0.75 0.75 0.14 0.69-0.31 1.14-1 1-0.69-0.14-1.48 0.42-1.75 1.25-0.38 1.13 0.06 1.36 1.75 0.95 1.24-0.3-2.25 1.29-7.75 3.55-5.5 2.25-11.68 4.63-13.73 5.3-3.17 1.02-3.54 1.43-2.5 2.76 0.68 0.85-0.06 0.18-1.63-1.5-1.57-1.69-4.32-5.31-6.11-8.06-1.79-2.75-3.54-6.01-3.89-7.25-0.35-1.24-0.98-2.25-1.39-2.25-0.41 0-0.86-0.56-0.99-1.25-0.13-0.69-0.35-2.82-0.5-4.74-0.25-3.33 0.17-3.82 9.24-10.69 5.22-3.96 14.22-9.79 20-12.95 5.77-3.17 10.72-6.16 11-6.65 0.27-0.49 0.95-0.86 1.5-0.82 0.55 0.04 1.79-0.14 2.75-0.41 0.96-0.27 1.75-0.94 1.75-1.49 0-0.55 0.45-0.77 1-0.5 0.55 0.28 1 0.16 1-0.25 0-0.41 0.62-0.75 1.37-0.75 0.76 0 1.17 0.67 0.93 1.5-0.25 0.83 1.95-1.07 4.87-4.21 2.93-3.15 5.78-5.75 6.33-5.79 0.55-0.04 2.83-1.74 5.07-3.79 2.24-2.04 5.84-5.17 7.99-6.96 2.16-1.79 4.07-3.25 4.25-3.25zm295.56 10c0.24 0.28 0.57 1.85 0.74 3.5 0.18 1.65 0.65 3.45 1.06 4 0.41 0.55 0.45 3.48 0.1 6.5-0.52 4.45-0.78 5.02-1.36 3-0.39-1.37-0.77-5.87-0.84-10-0.07-4.12 0.07-7.27 0.3-7zm-268.26 72.03c0.33-0.02 0.44 0.87 0.25 1.97-0.2 1.1 0.2 2.33 0.89 2.72 0.69 0.4 1.7 0.78 2.25 0.85 0.55 0.07 1.67 0.18 2.5 0.25 0.82 0.06 2.62 1.05 4 2.18 1.37 1.13 3.51 2.05 4.75 2.03 1.27-0.02 2.68 0.84 3.25 1.97 0.89 1.77 1.14 1.82 2.25 0.46 1.08-1.32 2.11-0.57 13.75 12.54l-8.75 3.14c-6.38 2.3-10.3 3.11-14.5 3-5.37-0.13-5.74 0.01-5.64 2.11 0.06 1.24 0.06 2.81 0 3.5-0.06 0.69-0.45 1.08-0.86 0.87-0.41-0.21-2.33 0.69-4.25 2-1.93 1.31-5.08 3.41-7 4.66-1.93 1.26-7.78 4.27-13 6.7-5.23 2.42-9.83 4.89-10.23 5.47-0.41 0.58-0.75 0.71-0.75 0.3-0.01-0.41-2.72 0.6-6.02 2.25-3.3 1.65-6.34 2.99-6.75 2.97-0.41-0.01-2.44-1.59-4.5-3.5-2.06-1.91-3.75-3.92-3.75-4.47 0-0.55-0.68-1.22-1.5-1.5-0.83-0.27-1.28-0.95-1-1.5 0.27-0.55-0.14-1.34-0.93-1.75-0.78-0.41-1.39-0.97-1.35-1.25 0.04-0.27-0.22-1.51-0.57-2.75-0.36-1.24-1.1-2.25-1.65-2.25-0.55 0-0.83-0.34-0.63-0.75 0.21-0.41 0.06-1.65-0.33-2.75-0.39-1.1-0.22-2.57 0.38-3.27 0.59-0.69 4.57-4.18 8.83-7.75 4.83-4.04 8.22-6.2 9-5.74q1.24 0.73 0.5-0.5c-0.49-0.81 0.9-2.4 4-4.57 2.61-1.82 6.77-4.47 9.25-5.87 2.47-1.41 9-4.23 14.5-6.28 5.5-2.05 10.67-4.11 11.5-4.59 0.82-0.48 1.77-0.88 2.11-0.9z"/>
		<path id="Path 6" fill-rule="evenodd" class="s4" d="m624.75 89.1c0.69-0.06 1.7 0.91 2.25 2.15 0.55 1.24 3.9 16.88 7.44 34.75 3.54 17.88 6.58 34.51 7.06 41.42l-9 1.73c-4.95 0.95-9.67 1.76-10.5 1.79-1.15 0.04-2.05-3.04-3.83-13.19-1.29-7.29-4.58-24.72-7.33-38.75-2.75-14.03-4.69-25.72-4.32-26 0.37-0.28 4.34-1.24 8.83-2.15 4.48-0.91 8.71-1.7 9.4-1.75zm8.87 4.69c1.03 0.56 2.67 1.84 3.63 2.86 0.96 1.02 2.84 6.57 4.16 12.35 1.33 5.78 3.58 17.03 4.99 25 1.42 7.98 2.59 15.96 2.59 17.75 0.01 1.79-0.76 4.71-1.71 6.5-1.7 3.21-1.73 3.22-2.07 0.75-0.19-1.37-2.97-15.55-6.19-31.5-3.21-15.95-6.17-30.29-6.56-31.86-0.65-2.57-0.53-2.76 1.16-1.85zm-31.57 5.21c0.52 0 0.95 0.79 0.94 1.75 0 0.96 2.42 13.68 5.38 28.25 2.97 14.57 5.78 29.08 6.26 32.24 0.48 3.15 0.53 5.74 0.12 5.75-0.41 0-1.61-1.68-2.67-3.74-1.05-2.06-2.88-9.37-4.07-16.25-1.18-6.87-3.24-17-4.58-22.5-1.33-5.5-2.76-12.82-3.18-16.26-0.57-4.75-0.45-6.26 0.5-6.25 0.69 0 1.05-0.67 0.8-1.49-0.25-0.82-0.03-1.5 0.5-1.5zm-97.3 12.09c0.69-0.05 1.25 0.02 1.24 0.16-0.01 0.14 1.34 7.68 2.98 16.75 1.64 9.07 5.02 26.63 7.5 39 2.47 12.38 4.4 22.58 4.27 22.67-0.13 0.09-4.62 0.99-9.97 2-6.46 1.21-10.05 1.49-10.67 0.83-0.52-0.55-3.41-13.15-6.43-28-3.02-14.85-6.32-31.82-7.33-37.7-1.01-5.89-1.46-11.06-0.98-11.5 0.47-0.44 4.74-1.55 9.5-2.46 4.75-0.92 9.2-1.7 9.89-1.75zm9.29 6.13c1 1.25 2.49 5.21 3.31 8.78 0.83 3.57 2.02 10.1 2.65 14.5 0.63 4.4 1.98 11.38 3 15.5 1.01 4.13 2.37 10.88 3.02 15 0.96 6.09 0.93 8.13-0.17 10.86-1.32 3.29-1.42 3-4.59-13-1.78-9-4.78-24.46-6.67-34.36-1.88-9.9-3.18-18.35-2.89-18.78 0.3-0.43 1.35 0.24 2.34 1.5zm-33.02 4.78c0.54 0 0.98 1.13 0.98 2.5 0 1.38 2.71 16.11 6.03 32.75 3.31 16.64 5.9 30.6 5.75 31.02-0.15 0.42-1.29 0.08-2.53-0.75-1.46-0.99-2.94-3.88-4.22-8.27-1.09-3.71-3.53-14.62-5.43-24.25-1.91-9.62-3.79-19.75-4.2-22.5-0.58-3.9-0.37-5.6 0.95-7.75 0.93-1.51 2.13-2.75 2.67-2.75zm6.01 353.86c0.33 0.35 1.19 3.56 1.9 7.14 0.71 3.58 1.39 6.95 1.53 7.5 0.13 0.55 0.6 1.9 1.05 3 0.44 1.1 2.08 5.26 3.65 9.25 1.56 3.99 5.04 11.64 7.73 17 2.7 5.36 7.57 13.8 10.84 18.75 3.26 4.95 8.66 12.37 12 16.5 3.34 4.12 11.07 12.34 17.17 18.25 6.11 5.91 11.44 10.75 11.85 10.75 0.41-0.01 1.99 1.12 3.5 2.5 1.51 1.37 3.2 2.5 3.75 2.5 0.55 0 1 0.45 1 1 0 0.55-1.35 2.12-3 3.5-1.65 1.37-3.67 2.5-4.5 2.5-0.83 0-3.64-1.44-6.25-3.2-2.61-1.76-9.87-8.17-16.12-14.25-6.25-6.08-14.18-14.65-17.62-19.05-3.44-4.4-9.19-12.5-12.78-18-3.6-5.5-8.56-14.05-11.03-19-2.47-4.95-5.68-11.92-7.14-15.5-1.45-3.58-3.52-9.99-4.6-14.25-1.08-4.26-2.05-9.01-2.17-10.55-0.18-2.41 0.41-3.1 4.21-4.89 2.43-1.15 4.69-1.8 5.03-1.45zm-14.28 13.22c0.69-0.04 1.25 0.59 1.25 1.42 0 0.83 0.11 1.75 0.25 2.06 0.14 0.31-6.05 3.15-13.75 6.3-7.7 3.15-28.29 13.02-45.75 21.93-31.36 16.01-31.75 16.18-31.74 13.46 0-2.53 1.31-3.45 16.25-11.42 8.93-4.77 22.76-11.91 30.74-15.88 7.98-3.96 19.9-9.34 26.5-11.95 6.6-2.61 12.68-4.99 13.5-5.3 0.82-0.3 2.06-0.58 2.75-0.62zm4.35 12.27c0.42 0.63 0.57 1.49 0.33 1.9-0.23 0.41-0.09 0.74 0.32 0.73 0.41-0.02 1.37 1.9 2.13 4.25 0.75 2.35 4.33 10.12 7.94 17.27 3.61 7.15 6.82 13.23 7.13 13.5 0.32 0.27 3.49 4.99 7.06 10.47 3.57 5.49 7.17 10.7 7.99 11.59 0.82 0.89 5.1 5.8 9.5 10.91 4.4 5.11 9.8 10.81 16 16.04l-3 3.09c-1.65 1.7-7.95 7.47-14 12.83-6.05 5.36-16.4 14-23 19.2-6.6 5.21-18.19 14.06-25.75 19.67-7.56 5.61-14.31 10.44-15 10.74-0.69 0.3-3.97-2.28-7.31-5.75-3.34-3.46-7.89-8.99-10.11-12.29-2.23-3.3-5.43-8.48-7.13-11.5-1.69-3.02-4.46-8.99-9.2-21l15.75-10.85c8.66-5.96 17.55-12.04 19.75-13.5 2.2-1.46 4.34-2.66 4.75-2.65 0.41 0 2.66 1.63 5 3.61 2.34 1.99 5.15 4.1 8.25 5.76l-2-2.6c-1.1-1.44-3.87-5.01-6.16-7.94-2.29-2.93-6-8.71-8.24-12.83-2.24-4.14-4.07-6.6-4.07-5.5-0.01 1.1 0.61 4.25 1.37 7 0.76 2.75 1.65 5.79 1.99 6.75 0.45 1.3-0.49 2.44-3.64 4.41-2.34 1.46-11.68 6.62-37.25 20.25l-2.39-2.2c-1.32-1.22-5.08-5.59-8.37-9.71-3.29-4.13-7.67-10.42-9.74-14-2.06-3.58-5.11-9.65-6.76-13.5-1.66-3.85-3.29-8.01-3.63-9.25-0.55-2.04 0.7-2.95 13.14-9.64 7.56-4.07 20.73-10.88 29.25-15.13 8.52-4.26 19.55-9.54 24.5-11.74 4.95-2.2 12.34-5.24 16.42-6.76 5.33-2 7.63-2.45 8.18-1.63zm63.4 91.65c0.28 0 1.28 0.27 2.23 0.61 0.96 0.33 1.65 1.12 1.54 1.75-0.11 0.63-4.83 5.65-10.49 11.17-5.65 5.52-14.78 13.65-20.28 18.08-5.5 4.42-18.1 14.12-28 21.55-9.9 7.43-18.9 14.02-20 14.64-1.54 0.87-2.46 0.81-4-0.25-1.1-0.76-1.77-1.57-1.5-1.8 0.27-0.23 8.82-6.68 19-14.33 10.18-7.65 23.9-18.39 30.5-23.87 6.6-5.48 16.16-13.92 21.25-18.76 5.09-4.83 9.48-8.79 9.75-8.79zm-281.6 26.04c0.23-0.02-0.67 1.07-2 2.43-1.32 1.36-2.74 2.26-3.15 2-0.41-0.26-2.32 0.65-4.25 2.03-1.92 1.37-4.76 2.5-6.3 2.5-1.54 0-3.23 0.45-3.75 1.01-0.52 0.56-3.17 1.21-5.88 1.45-3.22 0.28-5.4 1.06-6.27 2.24-0.73 0.99-1.33 2.14-1.32 2.55 0.01 0.41 1.97 2.89 4.34 5.5 2.38 2.61 4.63 6.21 5 8 0.38 1.79 1.13 3.25 1.68 3.25 0.55 0 0.78 0.67 0.5 1.5-0.27 0.83-0.05 1.5 0.5 1.5 0.55 0 0.91 0.56 0.8 1.25-0.1 0.69 0.17 2.37 0.62 3.75 0.45 1.37 1.55 3.3 2.45 4.28 0.9 0.98 2.76 1.79 4.13 1.79 1.38 0 3.4-0.92 4.5-2.04 1.29-1.31 2.8-1.86 4.25-1.53 1.53 0.34 3.07-0.3 4.8-2 1.55-1.53 3.69-2.5 5.5-2.5 1.94 0 3.81-0.94 5.46-2.75 2.19-2.39 3.37-2.78 9-3 3.57-0.14 6.48 0.09 6.47 0.5-0.02 0.41-3.5 3.21-7.75 6.23-4.25 3.01-12.68 8.54-18.73 12.29-6.05 3.74-13.25 7.47-16 8.28-2.75 0.81-7.02 1.47-9.5 1.47-2.47 0-6.75-0.78-9.5-1.73-2.88-1-7.12-3.7-10-6.36-2.97-2.73-6.52-7.52-8.75-11.77-2.06-3.94-3.52-7.83-3.25-8.66 0.28-0.83 0.05-1.73-0.5-2-0.55-0.27-1-2.08-1-4 0-1.92 0.68-4.85 1.5-6.5 0.83-1.67 3.28-3.89 5.5-5 2.2-1.1 5.4-2.14 7.12-2.31 1.71-0.18 3.4-0.57 3.75-0.87 0.35-0.31 2.43-0.87 4.63-1.25 2.2-0.38 9.4-2.28 16-4.22 6.6-1.94 13.58-4.37 15.5-5.4 1.93-1.02 3.68-1.88 3.9-1.91zm9.55 2.4c1.68 0.34 4.72 2.29 6.76 4.34 2.04 2.05 3.51 4.06 3.25 4.47-0.25 0.41-0.01 0.75 0.54 0.75 0.55 0 1.36 1.91 1.8 4.25 0.44 2.34 0.55 5.34 0.25 6.67-0.3 1.33-1.45 2.98-2.55 3.68-1.1 0.7-3.12 1.55-4.5 1.9-2.25 0.57-2.64 0.21-3.88-3.68-0.75-2.38-2.08-5.45-2.94-6.82-0.86-1.38-3.05-4.41-8.18-11l3.2-2.59c2.5-2.01 3.88-2.45 6.25-1.97zm43.84 56.56l-3.39 3.52c-1.94 2-4.37 3.51-5.65 3.5-1.24-0.01-3.6 0.65-5.25 1.48-1.65 0.83-3 1.95-3 2.5 0 0.55-0.45 0.77-1 0.5-0.55-0.27-1-0.05-1 0.5 0 0.55-0.45 0.77-1 0.5-0.55-0.27-1.89 0.51-2.97 1.75-1.08 1.24-1.98 2.81-2 3.5-0.02 0.71-1.3 1.25-2.96 1.25-1.61 0-3.63 0.67-4.5 1.5-0.86 0.83-1.57 2.62-1.57 4 0 1.57 1.87 4.64 5.02 8.25 2.75 3.16 5 6.31 5 7-0.01 0.69 0.5 1.25 1.15 1.25 0.64 0 0.86 0.23 0.5 0.5-0.37 0.27 0.01 1.17 0.83 2 0.83 0.83 1.27 1.95 1 2.5-0.27 0.55-0.05 1 0.5 1 0.55 0 0.77 0.56 0.5 1.25-0.28 0.69 0.4 2.71 1.5 4.5 1.84 3 2.23 3.17 5 2.25 1.73-0.58 3.63-2.27 4.5-4 0.83-1.65 2.18-3 3-3 0.83 0 2.51-1.32 3.75-2.93 1.24-1.61 2.59-2.73 3-2.5 0.41 0.24 1.99-0.64 3.5-1.94 1.51-1.3 4.43-2.54 6.48-2.75 3.71-0.38 3.72-0.37 1.5 1.35-1.23 0.95-3.8 2.49-5.73 3.42-1.92 0.94-4.1 2.19-4.83 2.78-0.74 0.59-4.79 4.27-9 8.17-4.22 3.91-9.92 9.11-12.67 11.56-2.75 2.45-6.69 4.99-8.75 5.64-3.29 1.05-4.37 0.93-8.9-1.05-2.96-1.29-6.86-4.16-9.2-6.75-2.23-2.48-5.16-6.98-6.5-10-1.35-3.02-2.6-6.85-2.78-8.5-0.18-1.65-0.63-4.8-1-7-0.42-2.58-0.25-4.27 0.49-4.75 0.63-0.41 1.14-2.33 1.14-4.25 0-2.53 0.9-4.52 3.25-7.17 2.2-2.49 6.97-5.46 14.75-9.2 6.33-3.04 16-6.99 21.5-8.79 5.5-1.8 11.3-3.29 15.79-3.34zm4.96 6.04c2.38 0.03 4.12 0.96 6.5 3.5 2.03 2.16 3.84 5.62 4.83 9.21 0.87 3.16 1.32 6.99 1 8.5-0.32 1.51-1.59 3.43-2.83 4.26-1.24 0.83-3.37 1.5-4.75 1.5-2.19 0-2.66-0.66-3.76-5.26-0.69-2.89-2.82-7.5-4.73-10.25-1.91-2.75-3.48-5.56-3.49-6.25-0.01-0.69 0.88-2.15 1.98-3.25 1.21-1.21 3.29-1.98 5.25-1.96z"/>
		<path id="Path 7" fill-rule="evenodd" class="s5" d="m543.75 126.46c1.79 2.02 2.13 3.31 1.69 6.29-0.49 3.34-0.41 3.53 0.75 1.75 1.2-1.85 1.34-1.7 1.8 2 0.28 2.2 0.06 5.01-0.49 6.25-0.55 1.24-1.67 2.49-2.5 2.78-0.83 0.29-2.17 0.3-3 0.03-0.83-0.26-2.32-2.41-3.33-4.77-1.01-2.36-1.91-5.49-2-6.95-0.09-1.46-0.51-2.47-0.92-2.25-0.41 0.23-0.75-0.27-0.75-1.09 0-0.82 0.45-1.27 1-1 0.55 0.28 0.94-0.15 0.87-0.94-0.08-0.8 0.93-2.16 2.25-3.04 2.25-1.51 2.5-1.46 4.63 0.94zm9.34 0.54c0.78 1.33 0.88 1.33 0.93 0 0.03-1.18 0.25-1.12 1.01 0.25 0.63 1.13 0.63 2.37 0 3.5-0.89 1.6-0.97 1.58-1-2.25l-1.4 2c-1.3 1.85-1.36 1.73-0.91-1.5 0.36-2.61 0.71-3.12 1.37-2zm16.03 3c0.49 0 0.93 0.56 1 1.25 0.06 0.69 0.06 1.59 0 2-0.07 0.41 1.45 1.76 3.37 3 1.92 1.24 3.49 2.59 3.5 3 0 0.41-0.78 0.31-1.74-0.22-0.96-0.54-2.7-1.77-3.87-2.75-1.16-0.98-2.34-2.79-2.62-4.03-0.29-1.24-0.12-2.25 0.36-2.25zm-12.37 5.22c2.06 1.13 4.42 1.84 5.25 1.58 0.94-0.3 1.5 0.17 1.5 1.26 0 0.96-0.34 1.57-0.75 1.34-0.41-0.22-0.75 0.28-0.75 1.1 0 0.82-0.56 1.7-1.25 1.94-0.69 0.24-2.15-0.2-3.25-0.97-1.1-0.77-2.41-1.08-2.91-0.69-0.5 0.4-0.61 0.16-0.25-0.53 0.36-0.69 0.21-1.25-0.34-1.25-0.55 0-0.77-0.45-0.5-1 0.27-0.55 0.05-1.22-0.5-1.5-0.55-0.27-0.78-1.14-0.5-1.92 0.41-1.17 1.17-1.05 4.25 0.64zm0.74 19.32c1.22 0.37 1.07 0.85-0.74 2.46-1.24 1.1-4.16 2.45-6.5 3-2.34 0.55-5.15 1.9-6.25 3-1.31 1.31-1.98 3.29-1.96 5.75 0.04 3.26-0.15 3.59-1.5 2.5-0.84-0.69-1.31-1.7-1.04-2.25 0.27-0.55 0.05-1-0.5-1-0.55 0-1-0.79-0.99-1.75 0-0.96-0.16-3.1-0.35-4.75-0.29-2.34-0.02-2.92 1.24-2.64 0.88 0.2 1.94-0.14 2.35-0.75 0.41-0.61 1.54-0.84 2.5-0.5 0.96 0.34 2.09 0.11 2.5-0.5 0.41-0.61 1.65-0.88 2.75-0.61 1.1 0.27 2 0.05 2-0.5 0-0.55 0.79-0.73 1.75-0.39 0.96 0.34 2.08 0.13 2.49-0.46 0.41-0.58 1.42-0.86 2.25-0.61zm-9.76 30.96c0.21 2.2 0.21 5.57 0 7.5-0.22 1.93-0.39 0.13-0.39-4 0-4.12 0.17-5.7 0.39-3.5zm-0.15 31.5c0.33 0 0.33 7.65 0 17-0.38 11.06-0.23 17 0.42 17 0.55 0 1-0.45 1-1 0-0.55 0.56-1.17 1.25-1.37q1.25-0.36 1 2.5c-0.14 1.58 0.2 3.1 0.75 3.37 0.55 0.27 0.76 1.51-0.06 5l1.03-2.25c0.57-1.24 1.26-2.25 1.53-2.25 0.27 0 0.35 1.01 0.16 2.25-0.18 1.24 0.27 2.81 1 3.5 0.74 0.69 1.79 1.25 2.34 1.25 0.55 0 0.77 0.45 0.5 1-0.27 0.55 0.66 2.46 2.07 4.25 1.68 2.12 2.46 4.2 2.25 5.98-0.18 1.5 0.02 2.74 0.43 2.75 0.41 0.01 1.05 1.26 1.42 2.77 0.36 1.51 0.78 4.32 0.92 6.25 0.14 1.93 1.09 6.65 2.11 10.5 1.6 6.05 1.71 8.26 0.82 16.3-0.81 7.4-0.76 9.44 0.27 10 0.8 0.44 1.09 1.74 0.75 3.45-0.3 1.53-0.1 2.75 0.46 2.75 0.58 0 0.7 0.94 0.29 2.25-0.43 1.37-0.33 2 0.25 1.6 0.56-0.37 1.08 1.49 1.24 4.5 0.21 3.76 1.01 6.09 2.98 8.65 1.48 1.93 3.6 4.27 4.71 5.22 1.12 0.94 3.49 2.18 5.28 2.75 1.79 0.57 3.07 1.37 2.85 1.78-0.21 0.41 0.24 1.31 1 2 0.77 0.69 1.64 0.91 1.93 0.5 0.29-0.41 0.51-0.3 0.49 0.25-0.01 0.55-0.93 2.46-2.02 4.25-1.1 1.79-2.56 3.24-3.25 3.22-0.69-0.01-0.9 0.32-0.48 0.75 0.43 0.43 2.84-1.24 5.37-3.72 2.52-2.48 3.98-3.49 3.23-2.25-0.76 1.24-1.71 2.26-2.12 2.25-0.41 0-0.52 0.68-0.25 1.5 0.27 0.82 0.03 1.61-0.54 1.75-0.57 0.14-1.13 1.26-1.25 2.5-0.12 1.24-0.55 2.25-0.96 2.25-0.41 0-0.52 0.45-0.25 1 0.27 0.55 0.05 1-0.5 1-0.55 0-0.77 0.45-0.5 1 0.27 0.55-0.06 0.99-0.75 0.97-0.69-0.01-0.91 0.21-0.5 0.5 0.41 0.29-0.14 1.54-1.22 2.78-1.08 1.24-1.76 2.59-1.5 3 0.26 0.41 0.02 0.75-0.53 0.75-0.55 0-0.77 0.45-0.5 1 0.27 0.55-0.17 1.23-1 1.5-0.83 0.27-1.27 0.95-1 1.5 0.27 0.55-0.17 1.23-1 1.5-0.83 0.27-1.27 0.95-1 1.5 0.27 0.55-0.17 1.23-1 1.5-0.83 0.27-1.27 0.95-1 1.5 0.27 0.55 0.05 1-0.5 1-0.55 0-1 0.45-1 1 0 0.55-1.66 3.81-3.7 7.25-2.03 3.44-4.21 6.92-4.84 7.75-0.63 0.83-2.68 5.33-4.55 10-2.72 6.79-3.39 9.81-3.33 15 0.05 4.4 0.78 8.03 2.25 11.25 1.19 2.61 1.87 4.98 1.5 5.25-0.36 0.27-0.14 0.5 0.5 0.5 0.65 0 1.12 0.34 1.05 0.75-0.06 0.41-0.06 1.31 0 2 0.07 0.69 0.46 1.07 0.87 0.84 0.41-0.22 0.86 0.56 1 1.75 0.13 1.19 2.54 4.86 5.34 8.16 4.46 5.25 4.18 5.06-2.25-1.56-4.04-4.16-8.83-10.23-10.66-13.5-1.83-3.27-3.11-5.04-2.86-3.94 0.26 1.1 0.07 2.67-0.41 3.5q-0.87 1.47-0.89 0.25c-0.01-0.76-0.7-1-1.77-0.62-0.96 0.35-3.72 0.01-6.12-0.75-2.41-0.76-4.77-1.94-5.25-2.63-0.49-0.69-1.33-1.02-1.88-0.75-0.55 0.27-1.01 0.16-1.02-0.25-0.01-0.41 2.03-2.1 4.54-3.75 2.5-1.65 4.54-3.11 4.52-3.25-0.02-0.14-1.05 0.26-2.29 0.89-1.24 0.62-4.39 2.65-7 4.5-4.62 3.27-4.72 3.29-3.75 0.86 0.55-1.37 0.74-2.5 0.43-2.5-0.32 0 0.13-0.67 1-1.5 0.86-0.83 1.91-2.86 2.32-4.52 0.41-1.67 1.09-3.02 1.5-3 0.41 0.01 0.52-0.43 0.25-0.98-0.27-0.55 0.17-1.67 1-2.5 0.83-0.83 1.27-1.61 0.98-1.75-0.29-0.14 1.42-2.95 3.8-6.25 2.38-3.3 5.3-7.12 6.5-8.5 1.2-1.37 5.23-5.78 8.95-9.78 3.72-4 7.11-7.26 7.52-7.25 0.41 0.02 0.74 1.27 0.73 2.78-0.01 1.92 0.31 2.45 1.06 1.75 0.6-0.55 1.34-4.15 1.66-8 0.46-5.66 0.26-7.33-1.06-8.75-0.9-0.96-1.34-1.98-0.97-2.25 0.36-0.27 0.14-0.5-0.5-0.5-0.65 0-0.94-0.45-0.67-1 0.27-0.55 0.11-1.11-0.36-1.25-0.47-0.14-2.64-3.4-4.82-7.25-2.18-3.85-5.13-9.93-6.55-13.5-1.43-3.57-3.08-8.41-3.68-10.75-0.6-2.34-0.86-4.7-0.59-5.25 0.27-0.55 0.2-1.56-0.17-2.25-0.37-0.69-0.57-6.87-0.45-13.75 0.11-6.87 0.19-13.96 0.16-15.75-0.02-1.79 0.41-3.48 0.96-3.75 0.55-0.27 0.77-0.95 0.5-1.5-0.27-0.55-0.22-1.79 0.13-2.75 0.35-0.96 0.68-3.7 0.75-6.09 0.07-2.39-0.22-4.52-0.63-4.75-0.41-0.23-0.52-0.86-0.25-1.41 0.27-0.55 0.05-1-0.5-1-0.55 0-0.77-0.45-0.5-1 0.27-0.55 0.05-1-0.5-1-0.55 0-0.91-0.34-0.79-0.75 0.11-0.41-0.55-2.1-1.47-3.75-0.92-1.65-1.39-3.34-1.04-3.75 0.35-0.41 0.03-0.75-0.7-0.75-0.73 0-1.04-0.34-0.67-0.75 0.36-0.41 0.1-1.33-0.59-2.04-0.68-0.72-0.9-1.28-0.49-1.25 0.41 0.02 0.1-1.2-0.7-2.71-0.79-1.51-1.24-3.09-1-3.5 0.25-0.41 0.06-1.31-0.41-2-0.48-0.69-1.14-3.95-1.47-7.25-0.34-3.3-0.11-11.4 0.49-18 0.6-6.6 1.49-12.56 1.97-13.25 0.48-0.69 0.57-2.71 0.2-4.5-0.49-2.37-0.36-3.05 0.5-2.5 0.64 0.41 1.17 0.3 1.17-0.25 0-0.55 0.26-1 0.58-1zm124.89 78c0.02 0-0.01 1.91-0.05 4.25-0.05 2.34-0.39 4.81-0.75 5.5-0.37 0.69-0.44 1.7-0.17 2.25 0.27 0.55 0.05 1-0.5 1-0.55 0-1.23 1.35-1.5 3-0.27 1.65-0.95 3-1.5 3-0.55 0-0.77 0.45-0.5 1 0.27 0.55 0.05 1-0.5 1-0.55 0-1 0.68-1 1.5 0 0.82 0.56 1.71 1.25 1.96 0.69 0.26-0.33 0.37-5.75 0.04l0.01-5c0.01-4.1 0.71-6.08 3.89-11 2.13-3.3 4.59-6.56 5.46-7.25 0.88-0.69 1.6-1.25 1.61-1.25zm-9.89 6.08c0.05-0.04 0.05 0.55 0 1.32-0.04 0.78-0.42 1.23-0.83 1-0.41-0.22-1.42 0.28-2.25 1.1-0.83 0.82-1.5 1.95-1.5 2.5 0 0.55-0.45 1-1 1q-1 0 0-2c0.55-1.1 0.66-2.02 0.25-2.05-0.41-0.02 0.6-0.66 2.25-1.41 1.65-0.76 3.04-1.41 3.08-1.46zm-68.21 73.92c0.15 0-0.12 1.69-0.6 3.75-0.49 2.06-1.49 3.75-2.23 3.75-1.01 0-1.09-0.5-0.36-2 0.55-1.1 0.73-2.56 0.41-3.25-0.33-0.69-0.14-1.02 0.41-0.75 0.55 0.27 1.25 0.05 1.55-0.5 0.3-0.55 0.67-1 0.82-1zm67.94 39.82c3.97 5.87 7.78 10.57 8.46 10.43 0.68-0.14 1 0.2 0.73 0.75-0.27 0.55 0.51 2.11 1.75 3.47 1.24 1.36 2.7 2.16 3.25 1.76 0.55-0.39 0.68-0.27 0.28 0.28-0.39 0.54 0.74 2.5 2.5 4.35 2.3 2.39 3.65 3.11 4.71 2.5 1.06-0.61 1.28-0.5 0.75 0.39-0.47 0.8 0.53 2.16 2.76 3.75 2.01 1.43 4.03 2.18 4.75 1.76q1.24-0.73 0.5 0.5c-0.49 0.81 0.48 1.94 2.75 3.24 1.92 1.1 4.06 1.67 4.75 1.26 0.74-0.44 0.96-0.34 0.55 0.25-0.39 0.54 0.85 1.78 2.75 2.74 1.9 0.96 4.01 1.41 4.69 1q1.23-0.74 0.5 0.5c-0.53 0.89 1.22 1.84 6.01 3.29 3.71 1.12 10.58 2.3 15.25 2.62 5.88 0.4 11.12 0.08 17-1.04 4.76-0.91 11.69-3.16 15.75-5.12 3.99-1.92 7.07-3.16 6.85-2.75-0.21 0.41-3.15 2.1-6.53 3.75-3.37 1.65-6.35 3.79-6.6 4.75-0.26 0.96-1.03 1.49-1.72 1.18-0.69-0.32-1.92 0.02-2.75 0.75-0.83 0.73-3.08 1.46-5 1.62-1.92 0.17-3.73 0.64-4 1.05-0.27 0.42-5 0.68-10.5 0.58-5.5-0.09-10.9-0.29-12-0.44-1.1-0.14-2.56-0.65-3.25-1.13-0.69-0.47-1.7-0.63-2.25-0.36-0.55 0.27-1 0.05-1-0.5 0-0.55-0.67-0.77-1.5-0.5-0.83 0.27-1.5 0.05-1.5-0.5 0-0.55-0.67-0.77-1.5-0.5-0.83 0.27-1.5 0.05-1.5-0.5 0-0.55-0.45-0.77-1-0.5-0.55 0.27-1 0.05-1-0.5 0-0.55-1.01-1.31-2.25-1.7-1.24-0.38-2.59-0.61-3-0.5-0.41 0.11-0.75-0.25-0.75-0.8 0-0.55-0.45-0.77-1-0.5-0.55 0.27-1 0.05-1-0.5 0-0.55-0.45-0.77-1-0.5-0.55 0.27-1 0.05-1-0.5 0-0.55-0.45-1-1-1-0.55 0-2.24-1.13-3.75-2.51-1.51-1.38-2.98-2.28-3.25-2-0.27 0.28-1.06-0.39-1.75-1.49-0.69-1.1-1.7-1.77-2.25-1.5-0.55 0.27-1.34-0.06-1.75-0.74-0.54-0.89-0.33-0.99 0.75-0.34 0.83 0.5 1.27 0.68 1 0.41-0.27-0.27-3.65-3.37-7.5-6.91-3.85-3.53-7-6.79-7-7.25 0-0.46-0.77-1.36-1.71-2-0.94-0.64-1.73-1.73-1.75-2.42-0.02-0.69-0.49-1.25-1.04-1.25-0.55 0-1-0.67-1-1.5 0-0.83-0.45-1.5-1-1.5-0.55 0-0.77-0.45-0.5-1 0.27-0.55-0.14-1.34-0.93-1.75-0.78-0.41-1.44-1.2-1.45-1.75 0-0.55-1.05-3.15-2.32-5.78-1.26-2.62-2.64-4.76-3.05-4.75-0.41 0.02-0.51-0.62-0.22-1.4 0.34-0.9 3.23 2.53 7.78 9.25zm-16.73-9.07c0.23 0.69 0.76 1.08 1.17 0.87 0.41-0.21 0.79 0.13 0.84 0.75 0.05 0.62 0.17 1.92 0.25 2.88 0.09 0.96 0.61 1.52 1.16 1.25 0.6-0.3 0.71 0.2 0.27 1.25-0.52 1.24-0.37 1.53 0.5 1q1.22-0.74 0.73 0.75c-0.27 0.83 0.29 2.33 1.25 3.33 0.96 1.01 1.86 2.39 1.99 3.07 0.14 0.69 0.93 2.34 1.75 3.67 0.83 1.34 1.96 2.43 2.51 2.43 0.55 0 0.77 0.45 0.5 1-0.27 0.55 0.17 1.23 1 1.5 0.83 0.27 1.27 0.95 1 1.5-0.27 0.55 0.4 1.56 1.5 2.25 1.1 0.69 1.77 1.59 1.5 2-0.28 0.41 3.1 4.35 7.5 8.75 4.4 4.4 8.67 8 9.5 8 0.83 0 1.73 0.67 2 1.5 0.27 0.83 1.17 1.5 2 1.5 0.83 0 1.5 0.45 1.5 1 0 0.55 0.67 1 1.5 1 0.83 0 1.5 0.45 1.5 1 0 0.55 0.56 0.99 1.25 0.97 0.69-0.02 2.48 1 3.99 2.25 1.51 1.25 2.74 3.29 2.75 4.53 0.01 1.24 0.35 2.07 0.76 1.84 0.41-0.22 0.86 0.45 1 1.5 0.24 1.85 0.16 1.85-2.5 0.13-1.51-0.98-4.55-2.61-10.75-5.43l2 2.11c1.1 1.17 2.86 2.22 3.92 2.36 1.06 0.13 2.07 0.8 2.25 1.49 0.18 0.69-0.34 1.25-1.17 1.25-0.93 0-1.22-0.48-0.76-1.25q0.73-1.24-0.5-0.5c-0.68 0.41-2.14 0.3-3.24-0.25-1.1-0.55-2.67-0.77-3.5-0.5-0.83 0.27-1.27 0.95-1 1.5 0.27 0.55-0.06 1-0.75 0.99-0.69 0-3.73-2.62-6.75-5.81-3.02-3.19-6.8-6.67-8.39-7.74-1.59-1.07-3.73-3.18-4.75-4.69-1.41-2.09-1.56-2.91-0.61-3.41 0.69-0.37 0.92-0.26 0.5 0.25-0.42 0.5 0.03 1.69 1 2.64 0.96 0.95 2.09 1.52 2.5 1.25 0.41-0.26 0.64 0.08 0.5 0.77-0.14 0.69 0.31 1.14 1 1 0.69-0.14 1.02 0.2 0.75 0.75-0.27 0.55 0.06 1.03 0.75 1.08 0.69 0.04 2.15 0.23 3.25 0.43 1.35 0.24 0.7-0.66-2-2.77-2.2-1.72-6.26-5.4-9.03-8.18-2.77-2.78-6.47-7.54-8.22-10.56-1.75-3.02-4.33-10-5.73-15.5-1.4-5.5-2.51-11.35-2.46-13 0.06-1.65 0.29-2.44 0.52-1.75zm-72.78 5.25c0.42 0 0.64 1.01 0.5 2.25-0.15 1.24-0.77 4.5-1.39 7.25-0.62 2.75-1.08 6.01-1.02 7.25 0.06 1.24-0.34 2.25-0.89 2.25-0.55 0-0.97 1.46-0.94 3.25 0.06 2.97 0.15 3.06 1 1 0.52-1.24 1.17-2.25 1.44-2.25 0.27 0-0.18 2.14-1.02 4.75-1.13 3.52-1.26 5.46-0.5 7.5q1.01 2.74 0.02 2.75c-0.55 0-1.01-0.56-1.03-1.25-0.01-0.69-0.63-1.92-1.38-2.75-0.75-0.83-1.89-3.75-2.54-6.5-0.64-2.75-1.4-6.12-1.69-7.5-0.42-2.05-0.31-2.23 0.65-1 0.92 1.19 1.03 0.78 0.53-2-0.35-1.92-0.38-3.16-0.08-2.75 0.29 0.41 1.21 0.08 2.04-0.75 0.83-0.83 1.48-1.97 1.44-2.54-0.03-0.57 0.88-2.82 2.02-5 1.14-2.18 2.42-3.96 2.84-3.96zm228.87 40.19c2.11 0.54 4.62 1.06 5.58 1.15 0.96 0.09 1.75 0.27 1.75 0.41 0 0.14-3.26 1.83-7.25 3.75-3.99 1.93-9.27 3.94-11.75 4.47-4.1 0.88-3.92 0.92 2 0.42 3.58-0.3 7.08-1.08 7.79-1.72 0.75-0.68 1.3-0.75 1.29-0.17 0 0.55-1.37 1.67-3.05 2.5-1.67 0.83-2.81 1.73-2.53 2 0.28 0.27 2.76-0.74 5.5-2.25 2.75-1.51 5.03-2.64 5.08-2.5 0.04 0.14 0.26 1.04 0.5 2 0.23 0.96 0.08 1.7-0.33 1.63-0.41-0.06-1.31-0.06-2 0-0.69 0.07-1.07 0.46-0.85 0.87 0.23 0.41-0.45 0.86-1.5 1-1.04 0.14-2.69 0.32-3.65 0.4-0.96 0.08-2.07 0.65-2.47 1.25-0.4 0.61-4.29 1.33-8.65 1.6-4.37 0.27-7.76 0.16-7.53-0.25 0.22-0.41-0.27-0.75-1.1-0.75-0.83 0-2.74-1.07-7-4.77l3.25-1.87c1.79-1.02 2.92-2.21 2.5-2.64-0.41-0.43-0.41-0.76 0-0.75 0.41 0.02 0.98 0.48 1.25 1.03 0.27 0.55-0.87 1.79-2.53 2.75-2.78 1.6-2.9 1.88-1.41 3.25 1.45 1.33 1.56 1.33 0.99 0-0.4-0.95 0.21-2.01 1.66-2.87 1.43-0.86 2.84-1.05 3.76-0.5 1.22 0.72 1.28 0.53 0.37-1.13-0.61-1.1-0.82-2.78-0.47-3.72 0.44-1.21 1.01-1.43 1.88-0.75q1.25 0.97 4-0.5c1.51-0.81 3.1-1.14 3.53-0.75 0.43 0.4 0.76 0.16 0.75-0.53-0.02-0.69 0.42-1.02 0.97-0.75 0.55 0.27 1.23 0.05 1.5-0.5 0.27-0.55 1.17-0.77 2-0.5 0.83 0.27 1.69 0.1 1.92-0.4 0.24-0.52 2.02-0.48 4.25 0.09zm-197.87 52.15c1.07 0.95 1.07 1.28 0 1.84-1.01 0.53-0.68 2.1 1.46 7 1.51 3.48 3.65 7.78 4.75 9.57 1.09 1.79 2.44 3.02 2.99 2.75 0.55-0.27 0.89-0.11 0.75 0.37-0.14 0.48 0.87 1.86 2.25 3.07 1.37 1.22 1.94 1.95 1.25 1.64-0.69-0.32-1.27-0.47-1.29-0.33-0.02 0.14 2.57 2.35 5.75 4.91 3.19 2.57 8.04 5.68 10.79 6.93 4.34 1.96 6.39 2.22 15.5 2 5.77-0.15 16.35-0.26 23.5-0.26 7.15 0 14.01 0.16 15.24 0.34 1.23 0.18 2.47 0.89 2.75 1.58q0.53 1.25-2.74 1.33c-1.79 0.04-2.69 0.27-2 0.5 0.72 0.24 1.25 2.11 1.25 4.42 0 2.2-0.45 4-1 4-0.55 0-0.77 0.45-0.5 1 0.29 0.59-0.43 0.53-1.75-0.14-1.24-0.62-1.92-0.73-1.51-0.25 0.4 0.49-0.05 1.49-1 2.21-0.96 0.73-1.18 1.07-0.49 0.75 0.79-0.36 1.06-0.01 0.75 0.93-0.27 0.83-0.95 1.27-1.5 1-0.55-0.27-1.23 0.17-1.5 1-0.27 0.83-0.17 2.29 0.23 3.25 0.57 1.37 0.42 1.54-0.69 0.75-1.15-0.82-1.26-0.55-0.58 1.5 0.7 2.08 0.6 2.3-0.56 1.34-0.77-0.64-1.54-2.66-1.7-4.5-0.17-1.84-0.52-3.57-0.78-3.84-0.26-0.27-0.47 2.42-0.46 6 0.01 3.58 0.35 8.08 1.5 13.5l0.71-4c0.53-3.01 0.6-2.58 0.27 1.75-0.28 3.64-0.07 5.57 0.56 5.25 0.55-0.27 1.05 0.51 1.12 1.75 0.06 1.24 0.06 2.59 0 3-0.07 0.41 0.33 0.75 0.88 0.75 0.55 0 0.77 0.45 0.5 1-0.27 0.55 0.02 1 0.67 1 0.64 0 0.87 0.34 0.51 0.75-0.36 0.41 0.13 1.35 1.08 2.07 0.96 0.73 1.18 1.07 0.49 0.75-1-0.46-1-0.18 0 1.37 0.69 1.06 1.59 1.73 2 1.5 0.41-0.24 1.31 0.35 2 1.31 1.15 1.61 1.1 1.63-0.67 0.25-1.79-1.4-1.88-1.35-1.25 0.75 0.38 1.28 0.24 2.25-0.33 2.25-0.55 0-1 0.67-1 1.5 0 1.08-0.93 0.74-3.35-1.25-1.84-1.51-3.19-3.09-3-3.5 0.19-0.41-0.44-1.19-1.4-1.72-0.96-0.53-1.41-0.98-1-1 0.41-0.02-0.38-1.83-1.75-4.03-1.38-2.2-3.19-5.69-4.03-7.75-0.85-2.06-2.14-7.35-2.89-11.75-0.74-4.4-1.47-9.35-1.63-11-0.15-1.65-0.31-4.44-0.36-6.2-0.06-2.12 0.59-3.7 1.91-4.67 1.1-0.81 1.77-1.76 1.5-2.12-0.27-0.36-2.98 0.14-6 1.12-3.02 0.98-5.84 1.69-6.25 1.58-0.41-0.12-0.75 0.24-0.75 0.79 0 0.55-0.34 0.93-0.75 0.84-0.41-0.09-2.1 0.42-3.75 1.12-1.65 0.71-4.8 1.84-7 2.52-2.2 0.68-4.56 1.07-5.25 0.88-0.69-0.2-1.25 0.09-1.25 0.64 0 0.55-1.13 0.77-2.5 0.5-1.38-0.27-2.5-0.05-2.5 0.5 0 0.55-1.24 0.97-2.75 0.94-1.51-0.04-6.8 0.36-11.75 0.88-6.4 0.67-10.74 1.77-15 3.81-3.3 1.58-6.11 3.21-6.25 3.62-0.14 0.41-0.7 0.52-1.25 0.25-0.55-0.27-0.98-0.16-0.96 0.25 0.02 0.41-1.44 1.41-3.25 2.21-1.81 0.8-3.88 2.04-4.61 2.75-0.73 0.71-1.97 1.29-2.75 1.29-0.79 0-1.43 0.45-1.43 1 0 0.55-0.45 0.77-1 0.5-0.55-0.27-1-0.05-1 0.5 0 0.55-0.67 1-1.5 1-0.83 0-1.5 0.45-1.5 1 0 0.55-1.13 1.23-2.5 1.5-1.38 0.27-2.49 1.06-2.47 1.75 0.01 0.69-0.21 0.91-0.5 0.5-0.29-0.41-1.24-0.08-2.1 0.75-0.87 0.83-1.99 1.5-2.5 1.5-0.51 0-1.6-0.67-2.43-1.5-0.83-0.83-1.95-1.5-2.5-1.5-0.55 0-1.67-1.12-2.5-2.5-0.94-1.56-1.97-2.22-2.74-1.75-0.74 0.44-0.96 0.34-0.56-0.25 0.37-0.55 1.71-0.83 2.99-0.63 1.27 0.21 3.21-0.08 4.31-0.63 1.56-0.78 1.02-0.92-2.5-0.65-3.61 0.27-4.93-0.1-6.69-1.87-1.42-1.44-1.72-2.22-0.84-2.22 0.73 0 1.16 0.34 0.93 0.75-0.22 0.41 0.27 0.98 1.1 1.25 0.89 0.3 2.83-0.99 4.75-3.13 1.79-1.99 4.49-4.24 6-5 1.51-0.75 3.09-1.37 3.5-1.38 0.41 0 3.9-1 7.75-2.21 3.85-1.21 7.45-2.55 8-2.97 0.55-0.43 2.46-1.91 4.25-3.29 1.79-1.39 3.92-2.52 4.75-2.52q1.49-0.01 0.91-1.75-0.59-1.72 0.25-0.5c0.66 0.99 1.59 1.01 4.34 0.09 1.92-0.65 6.42-4.04 10-7.54 3.58-3.5 6.73-6.34 7-6.31 0.27 0.03 1.32 0.84 2.33 1.79 1.01 0.94-0.43-1.65-3.19-5.78-2.76-4.12-6.44-10.87-8.18-15-1.74-4.12-3.23-9.14-3.31-11.16-0.12-2.93 0.11-3.42 1.15-2.5zm-224.03 47.39c0.69 0.97 1.26 2.33 1.25 3.02-0.01 0.69 0.43 1.02 0.98 0.75 0.55-0.27 0.74 0.06 0.43 0.75-0.32 0.69 0.13 2.04 1 3 0.86 0.96 1.27 1.98 0.9 2.25-0.36 0.27-0.14 0.5 0.5 0.5 0.64 0 0.94 0.45 0.67 1-0.27 0.55-0.05 1 0.5 1 0.55 0 0.77 0.45 0.5 1-0.27 0.55 0.03 1 0.67 1 0.64 0 0.88 0.34 0.53 0.75-0.35 0.41 0.02 1.99 0.83 3.5 0.81 1.51 1.92 2.75 2.47 2.75 0.55 0 0.77 0.45 0.5 1-0.27 0.55-0.05 1 0.5 1 0.55 0 1 0.67 1 1.5 0 0.83 0.45 1.5 1 1.5 0.55 0 0.77 0.45 0.5 1-0.27 0.55 0.29 1.44 1.25 1.97 0.96 0.53 1.41 0.98 1 1-0.41 0.02 0.6 1.38 2.25 3.03 1.65 1.65 3 3.45 3 4 0 0.55-1.24 1.66-2.75 2.47-1.51 0.81-3.1 1.14-3.53 0.75-0.43-0.4-0.76-0.27-0.75 0.28 0.02 0.55-0.98 1.09-2.22 1.21-1.24 0.12-2.36 0.68-2.5 1.25-0.14 0.57-0.7 0.81-1.25 0.54-0.55-0.27-1-0.16-1 0.25 0 0.41-1.01 0.86-2.25 0.99-1.24 0.13-2.48 0.58-2.75 1-0.27 0.42-1.18 0.91-2 1.09-0.82 0.18-2.18 0.96-3 1.72-0.82 0.77-1.84 1.41-2.25 1.42-0.41 0.02-2.83 2.17-5.37 4.78-2.54 2.61-4.05 3.85-3.35 2.75 0.69-1.1-0.95 0.24-3.64 2.99-2.69 2.74-5.26 4.99-5.72 5-0.46 0-1.36 0.73-2 1.61-0.64 0.88-1.49 1.55-1.89 1.5-0.39-0.06-1.63 0.69-2.75 1.65-1.12 0.96-4.17 2.67-6.78 3.79-2.61 1.11-5.43 2.14-6.25 2.27-0.82 0.14-2.06 0.57-2.75 0.97-0.69 0.4-1.59 0.52-2 0.27-0.41-0.24-1.99 0.21-3.5 1-1.51 0.8-2.73 1.11-2.71 0.7 0.03-0.41-0.67-0.08-1.54 0.75-0.87 0.83-1.55 1.05-1.5 0.5 0.05-0.55-0.63-0.33-1.5 0.5-0.87 0.83-1.55 1.05-1.5 0.5 0.05-0.55-0.63-0.33-1.5 0.5-0.87 0.83-1.55 1.05-1.5 0.5 0.05-0.55-0.61-0.44-1.46 0.25-1.25 1.02-1.63 0.97-2.04-0.25-0.27-0.83-0.95-1.27-1.5-1-0.55 0.27-1.55-0.29-2.22-1.25-0.67-0.96-0.78-1.44-0.25-1.06 0.53 0.37 3.9-0.38 7.47-1.68 3.57-1.29 9.88-3.76 14-5.47 4.13-1.71 6.49-2.87 5.25-2.57-1.69 0.4-2.13 0.16-1.75-0.97 0.27-0.83 1.06-1.39 1.75-1.25 0.69 0.14 1.14-0.31 1-1-0.14-0.69 0.2-1.02 0.75-0.75 0.55 0.27 1.23 0.05 1.5-0.5 0.27-0.55 2.41-1.97 4.75-3.16 2.34-1.19 4.81-2.76 5.5-3.5 1-1.08 1.53-1.09 2.67-0.09 0.91 0.8 1.07 1.61 0.45 2.25q-0.95 0.99-1.99-0.5c-0.92-1.33-0.99-1.33-0.63 0 0.22 0.83-0.54 2.34-1.68 3.36-2.03 1.82-2.01 1.82 0.93 0.12 1.65-0.96 5.41-3.6 8.37-5.86 2.95-2.27 5.86-4.79 6.47-5.62 0.6-0.83-0.01-0.54-1.37 0.63-1.36 1.16-3.48 2.63-4.72 3.25-1.8 0.9-2.4 0.82-3-0.39-0.41-0.83-0.52-1.73-0.25-2.01 0.27-0.27 1.24-0.6 2.15-0.74 0.91-0.13 2.59-1.48 3.75-2.99 1.15-1.51 2.55-2.52 3.1-2.25 0.55 0.27 0.89 0.01 0.75-0.59-0.14-0.6 0.62-1.62 1.69-2.25 1.06-0.64 3.43-2.51 5.25-4.16 1.82-1.65 3.09-3.23 2.82-3.5-0.27-0.27 0.06-1.07 0.75-1.77 0.68-0.7 0.9-1.49 0.49-1.75-0.41-0.27-0.03-1.27 0.84-2.23 0.88-0.96 1.77-3.1 1.99-4.75 0.22-1.65 0.74-3.37 1.16-3.83 0.42-0.46 1.34-0.24 2.04 0.5 0.71 0.73 1.97 2.23 2.8 3.33 0.83 1.1 0.41-0.25-0.93-3-1.34-2.75-3.83-8.71-5.54-13.25-2.63-6.98-2.92-8.56-1.86-10.27 1.18-1.91 1.32-1.92 2.52-0.25zm40.01 65.4c0.73 0.75 2.54 4.19 4.02 7.63 1.49 3.44 3.04 6.25 3.45 6.25 0.41-0.01 0.52 0.44 0.25 0.99-0.27 0.55-0.16 0.99 0.25 0.97 0.41-0.02 1.65 1.78 2.75 3.99 1.1 2.21 2.34 4.02 2.75 4.03 0.41 0 0.56 0.35 0.33 0.76-0.23 0.41 0.48 1.87 1.58 3.25 1.11 1.37 1.64 1.83 1.19 1-0.59-1.06-0.47-1.28 0.41-0.75 0.68 0.41 1.01 1.2 0.74 1.75-0.27 0.55 1.41 2.62 3.75 4.59 2.34 1.98 3.69 3.33 3 3-0.69-0.32-1.36-0.2-1.5 0.28-0.14 0.48-1.26 1.15-2.5 1.5-1.86 0.52-3.24-0.49-8-5.92-4.98-5.68-5.92-6.35-7-5-1.11 1.38-1.36 1.33-2.25-0.45-0.57-1.13-1.98-1.99-3.25-1.97-1.24 0.02-3.37-0.9-4.75-2.03-1.37-1.13-3.18-2.12-4-2.18-0.82-0.07-1.95-0.18-2.5-0.25-0.55-0.07-1.56-0.45-2.25-0.85-0.77-0.44-0.99-1.58-0.58-2.97 0.59-1.95 0.42-2.13-1.25-1.38-1.05 0.48-6.87 2.78-12.92 5.11-6.05 2.33-13.48 5.71-16.5 7.51-3.02 1.8-6.96 4.34-8.75 5.64-2.05 1.49-2.98 2.83-2.51 3.62q0.73 1.24-0.5 0.5c-0.77-0.47-4.26 1.7-9.24 5.75-4.4 3.58-8 6.95-8 7.5 0 0.55-0.56 1-1.25 1-0.69 0-1.33-1.01-1.42-2.25-0.09-1.24 0.95-3.6 2.32-5.25 1.37-1.65 2.2-2.33 1.85-1.5-0.36 0.83 1.71-0.98 4.6-4 2.89-3.02 5.63-5.39 6.08-5.25 0.45 0.14 1.83-1.11 3.07-2.77 1.24-1.66 2.81-3.01 3.5-3 0.69 0.01 1.25-0.43 1.25-0.98 0-0.55 0.68-1 1.5-1 0.82 0 1.5-0.45 1.5-1 0-0.55 0.45-0.77 1-0.5 0.55 0.27 1 0.05 1-0.5 0-0.55 0.34-0.94 0.75-0.86 0.41 0.08 2.21-0.37 4-1 1.79-0.63 3.25-1.48 3.25-1.89 0-0.41 1.01-0.84 2.25-0.96 1.24-0.12 2.36-0.68 2.5-1.25 0.14-0.57 0.7-0.81 1.25-0.54 0.55 0.27 1.56 0.17 2.25-0.23 0.69-0.41 1.59-0.86 2-1 0.41-0.15 0.86-0.31 1-0.35 0.14-0.05 1.15-0.2 2.25-0.33 1.1-0.13 3.69-0.77 5.75-1.42 2.06-0.64 3.75-1.62 3.75-2.17 0-0.55 0.48-1 1.08-1 0.59 0 2.5-1.42 4.25-3.16 1.74-1.73 4.86-4.21 6.92-5.5 2.06-1.29 3.85-2.85 3.98-3.46q0.24-1.12 1.55 0.25zm269.96 2.36c0.69 0.28 1.71 0.51 2.26 0.51 0.55 0 1 1.35 1 3 0 2.22 0.39 2.87 1.5 2.5 0.83-0.27 1.73-0.05 2 0.5 0.28 0.55 0.95 0.77 1.5 0.5 0.55-0.27 1.68-0.24 2.5 0.08 0.83 0.32 1.8 2.01 2.15 3.75 0.35 1.75 0.57 6.77 0.48 11.17-0.1 4.4-0.28 9.87-0.4 12.14-0.14 2.55 0.16 3.92 0.77 3.56 0.55-0.32 0.44 0.18-0.25 1.11-0.69 0.93-1.02 2.59-0.75 3.69 0.28 1.1 0.05 2-0.5 2-0.55 0-1-0.45-1-1 0-0.55-1.23-2.24-2.74-3.75-1.5-1.51-2.45-2.08-2.1-1.25 0.36 0.83 2.09 5.1 3.86 9.5 1.76 4.4 3.43 8.23 3.69 8.5 0.27 0.27 0.39-0.63 0.28-2-0.12-1.38-0.16-2.95-0.1-3.5 0.06-0.55 0.81-1 1.66-1q1.54 0.01 1 1.75c-0.31 0.99-0.12 1.53 0.45 1.25 0.55-0.27 1 0.4 1 1.5 0 1.1 0.56 2.17 1.25 2.37 0.74 0.22 1.33 2.36 1.45 5.25 0.11 2.68 0 5.67-0.25 6.63-0.26 1.02-1.07 1.54-1.95 1.25-1.17-0.39-1.46 0.32-1.33 3.25 0.09 2.06 0.02 6.45-0.15 9.75-0.19 3.5-0.48 4.75-0.71 3-0.22-1.65-0.82-4.24-1.35-5.75-0.53-1.51-1.41-2.52-1.96-2.25-0.55 0.27-0.91-0.06-0.81-0.75 0.11-0.69-0.62-3.95-1.63-7.25-1.01-3.3-1.88-6.56-1.94-7.25-0.07-0.69-0.46-1.25-0.87-1.25-0.41 0-0.7-0.34-0.63-0.75 0.06-0.41 0.06-1.54 0-2.5-0.07-0.96-0.79-2.42-1.62-3.25-0.83-0.83-1.27-1.5-1-1.5 0.28 0-0.17-1.13-1-2.5-0.83-1.38-1.16-2.51-0.75-2.52 0.41 0 0.28-0.34-0.3-0.75-0.58-0.4-1.99-2.98-3.13-5.73-1.14-2.75-2.65-7.48-3.35-10.5-0.82-3.58-1.08-9.34-0.74-16.5 0.31-6.61 1.07-11.9 1.88-13.26 0.75-1.25 1.93-2.03 2.63-1.75zm5.43 109.07c0.46 0.81 0.39 2.32-0.17 3.44-0.55 1.1-0.89 2.19-0.75 2.43 0.14 0.24 2.73-1.12 5.75-3.01 3.03-1.9 7.01-3.71 8.86-4.03 1.85-0.31 5.79-0.08 8.75 0.52 3.86 0.78 5.18 1.45 4.65 2.34q-0.73 1.24 0.5 0.5c0.7-0.43 8.49 2.11 17.99 5.86 12 4.73 17.68 6.49 20.02 6.21 2.21-0.28 2.97-0.07 2.36 0.64-0.5 0.57-2.87 1.33-5.27 1.68-3.25 0.49-6.14 0.05-11.36-1.72-3.85-1.3-8.8-3.55-11-5-2.2-1.44-4.79-2.7-5.75-2.77-0.97-0.08-1.75-0.49-1.75-0.9 0-0.41-0.45-0.52-1-0.25-0.55 0.27-0.99-0.06-0.97-0.75 0.01-0.69-0.32-0.95-0.75-0.58-0.43 0.36-2.8 0.02-5.28-0.77-2.47-0.78-6.3-1.43-8.5-1.44-3.05-0.01-5.66 1.05-11 4.49-3.85 2.47-8.58 4.76-10.5 5.08q-3.51 0.58-4.19-0.73c-0.39-0.71-0.95-0.96-1.25-0.55-0.31 0.41-1.23 0.08-2.06-0.75-0.83-0.83-1.52-1.84-1.54-2.25-0.03-0.41 0.76-1.42 1.75-2.25 1.66-1.39 1.68-1.37 0.29 0.29-1.33 1.6-1.33 1.79 0 1.72 0.83-0.05 3.71-2.07 6.42-4.49 3.89-3.48 5.09-4.1 5.75-2.96z"/>
		<path id="Path 8" fill-rule="evenodd" class="s6" d="m728.44 256.66c2.23 0.34 7.21 1.74 11.06 3.11 3.85 1.36 9.02 3.49 11.5 4.73 2.47 1.24 9.22 5.42 15 9.28 5.77 3.86 15.66 11.68 21.96 17.37 6.31 5.69 15.7 15.3 20.86 21.35 5.17 6.05 12.69 15.95 16.71 22 4.02 6.05 9.8 15.72 12.84 21.5 3.04 5.77 7.09 15.22 9 21 1.91 5.77 4.07 13.96 4.8 18.19 0.95 5.48 1.04 8.49 0.3 10.5-0.56 1.54-1.69 2.82-2.5 2.84-0.81 0.02-2.94 0.92-4.74 2-1.82 1.09-3.04 2.53-2.75 3.22 0.3 0.71-1.62 2.75-4.48 4.75-2.75 1.92-5.56 3.73-6.25 4.02-0.89 0.37-1.44-1.4-1.9-6.25-0.36-3.72-2.05-10.93-3.75-16.02-1.71-5.09-5.13-13.3-7.6-18.25-2.58-5.16-4.18-9.53-3.76-10.25 0.55-0.92 0.36-0.99-0.73-0.25-1.16 0.79-1.32 0.64-0.74-0.75 0.44-1.05 0.33-1.55-0.27-1.25-0.55 0.27-2.75-2.54-4.9-6.25-2.14-3.71-8.07-12.38-13.18-19.25-5.35-7.2-15.04-18.27-22.86-26.11-7.46-7.48-17.05-16.15-21.31-19.25-4.26-3.1-7.64-6.15-7.5-6.77 0.14-0.61-0.43-1.38-1.25-1.7-1.11-0.42-1.27-0.2-0.59 0.88 0.55 0.87 0.55 1.12 0 0.62-0.5-0.46-0.91-1.29-0.91-1.83 0-0.55-2.81-2.54-6.25-4.42-3.44-1.88-6.25-3.2-6.25-2.92 0 0.27 2.47 1.85 5.5 3.5 3.02 1.65 5.49 3.11 5.47 3.25-0.02 0.14-4.68-2-10.36-4.75-5.68-2.75-10.06-5.45-9.73-6 0.35-0.58 0.08-0.69-0.64-0.25-0.68 0.41-4.17 0.19-7.74-0.5-3.58-0.69-6.51-1.7-6.51-2.25 0-0.55 3.49-4.42 7.75-8.61 4.27-4.18 8.86-8.34 10.2-9.23 1.74-1.16 3.59-1.45 6.5-1zm31.86 57.33c0.44 0.01 3.82 3.16 7.5 7.02 3.69 3.85 6.47 7.01 6.2 7.01-0.28 0-3.65-3.16-7.5-7.02-3.85-3.86-6.64-7.01-6.2-7.01zm-287.89 170.06c0.49-0.03 1.06 0.85 1.25 1.95 0.19 1.1-0.22 2.2-0.91 2.45-0.69 0.25-5.75 2.08-11.25 4.08-5.5 2-18.33 7.67-28.5 12.6-10.18 4.94-25.48 12.76-34 17.39-8.53 4.63-15.84 8.43-16.25 8.45-0.41 0.02-0.75-1.32-0.75-2.97 0-2.92 0.67-3.33 26-16 14.3-7.15 30.39-14.88 35.75-17.17 5.36-2.3 13.8-5.65 18.75-7.45 4.95-1.8 9.41-3.3 9.91-3.33zm1.84 9.96c0.41 0 1.15 1.23 1.65 2.74 0.85 2.6 0.67 2.83-3.25 4.12-2.28 0.75-10 3.96-17.15 7.12-7.15 3.17-20.2 9.37-29 13.79-8.8 4.42-21.71 11.11-28.69 14.88-8.83 4.76-12.86 6.46-13.25 5.59-0.31-0.69-0.58-2.04-0.6-3-0.03-1.27 5.02-4.42 18.25-11.4 10.06-5.31 24.81-12.91 32.79-16.89 7.97-3.98 19.9-9.42 26.5-12.09 6.6-2.66 12.34-4.85 12.75-4.86zm61.12 94.02l4.67 4.47-4.27 4.35c-2.35 2.39-8.77 8.27-14.27 13.07-5.5 4.8-15.4 13-22 18.22-6.6 5.22-18.3 14.27-26 20.11-13.26 10.05-14.12 10.54-16.25 9.18-1.24-0.79-2.27-1.77-2.29-2.18-0.03-0.41 7.06-6.11 15.75-12.66 8.68-6.54 19.84-15.08 24.79-18.97 4.95-3.88 13.5-10.97 19-15.75 5.5-4.77 12.45-11.19 15.44-14.26zm9.37 8.16c0.14-0.1 1.12 0.37 2.19 1.06 1.44 0.93 1.69 1.69 1 3-0.52 0.96-6.22 6.53-12.69 12.37-6.46 5.84-18.05 15.66-25.75 21.82-7.7 6.17-19.96 15.79-27.25 21.38-13.2 10.14-13.25 10.17-17.75 6.52l18.5-13.86c10.18-7.63 23.9-18.21 30.5-23.53 6.6-5.32 16.28-13.92 21.5-19.12 5.23-5.2 9.62-9.54 9.75-9.64zm-252.6 10.1l2.26 6.1c1.24 3.36 3.18 7.91 4.31 10.11 1.13 2.2 4.13 6.36 6.67 9.25 2.54 2.89 4.16 5.25 3.61 5.25-0.55 0-1.33 0-1.75 0-0.41 0-0.86-0.45-1-1-0.13-0.55-0.25-1.22-0.25-1.5 0-0.27-4.38 1.7-19.5 9.26l-0.11-5.13c-0.07-3.27-1.02-6.94-2.6-10.13-1.37-2.75-3.8-6.03-5.39-7.28-2.83-2.24-2.85-2.32-0.9-3.65 1.1-0.76 4.85-3.6 8.33-6.33zm-36.28 23.15c1.45 0.71 4.11 3.49 5.93 6.17 1.81 2.69 3.99 7.37 4.83 10.4 1.28 4.57 1.31 5.72 0.2 6.86-0.73 0.75-1.78 1.14-2.33 0.87-0.55-0.26-1.6-2.67-2.34-5.36-0.74-2.68-1.97-6.11-2.75-7.62-0.77-1.52-3.1-4.59-5.16-6.83-2.91-3.18-3.44-4.27-2.38-4.93 0.81-0.5 2.44-0.32 4 0.44zm-11.2 2.57c1.46 0 3.51 1.39 5.51 3.75 1.75 2.06 4.23 6 5.52 8.75 1.52 3.23 2.25 6.41 2.07 9-0.18 2.7-0.74 4-1.72 4-0.88 0-2.29-2.38-3.56-6-1.16-3.3-2.81-7.35-3.68-9-0.87-1.65-2.87-4.45-4.44-6.22-1.58-1.77-2.68-3.46-2.45-3.75 0.23-0.29 1.46-0.53 2.75-0.53zm-10.5 2c1.01 0 3.3 1.46 5.1 3.25 1.8 1.78 4.46 5.72 5.91 8.75 1.46 3.02 2.91 7.18 3.23 9.25 0.42 2.63 0.14 4.19-0.91 5.25-0.82 0.82-1.95 1.27-2.5 1-0.55-0.28-1.45-2.75-2-5.5-0.55-2.75-1.9-6.8-3-9-1.1-2.2-3.57-5.69-5.48-7.75-1.92-2.07-3.19-4.09-2.83-4.5 0.35-0.42 1.47-0.75 2.48-0.75zm-36.85 6c0.1 0 0.19 3.49 0.21 7.75 0.03 6.8 0.45 8.59 3.5 14.71 1.91 3.83 5.72 9.28 8.47 12.1 2.75 2.82 7.03 6.17 9.5 7.44 2.48 1.28 6.3 2.92 12.5 4.97l-5.75-0.49c-3.49-0.29-5.75-0.09-5.75 0.52 0 0.57 0.96 0.7 2.25 0.31 1.61-0.49 2.04-0.34 1.5 0.5-0.55 0.88 0.95 1.12 5.79 0.94 3.59-0.14 6.85-0.72 7.25-1.29 0.39-0.58 2.51-1.57 4.71-2.21 2.2-0.65 4.12-1.08 4.26-0.96 0.14 0.11-2.11 1.3-5 2.64-3.49 1.62-7.61 2.57-12.26 2.83-6.21 0.34-7.68 0.05-13-2.61-3.53-1.76-8.16-5.29-11.25-8.58-2.89-3.06-6.6-8.39-8.25-11.82-1.65-3.44-3.29-8.5-3.64-11.25-0.35-2.75-0.38-6.13-0.06-7.5 0.32-1.38 1.53-3.74 2.7-5.25 1.17-1.52 2.21-2.75 2.32-2.75zm102.1 0.04c0.5-0.02 0.73 0.14 0.5 0.37-0.23 0.23-3.91 2.03-8.17 4-5.13 2.37-7.5 3.07-7 2.08 0.41-0.84 0.86-1.29 1-1 0.14 0.28 3.06-0.82 6.5-2.45 3.44-1.62 6.66-2.97 7.17-3zm38.42 26.97c0.18-0.01 1.18 2.8 2.22 6.24 1.04 3.43 3.73 8.95 5.99 12.25 2.25 3.3 5.3 6.99 6.77 8.2 1.48 1.21 2.46 2.4 2.18 2.63-0.27 0.24-4.89 2.28-20 8.67l-0.01-3.75c0-2.07-1.16-6.23-2.56-9.25-1.4-3.03-3.99-6.96-5.74-8.73-3-3.04-3.07-3.27-1.19-3.94 1.1-0.38 4.38-2.3 7.29-4.27 2.91-1.96 5.27-3.68 5.25-3.81-0.02-0.14-0.71-0.48-1.54-0.75-0.82-0.28-1.27-0.05-1 0.5 0.28 0.55-2.42 2.8-6 5-4.07 2.5-7.15 3.77-8.25 3.38-1.34-0.47-0.34-1.44 4.25-4.12 3.3-1.93 7.35-4.57 9-5.88 1.65-1.3 3.15-2.37 3.34-2.37zm-69.34 20.99c0.55-0.01-1.87 1.67-5.39 3.74-3.55 2.09-7.42 5.31-8.7 7.26-1.27 1.92-2.82 5.75-3.43 8.5-0.65 2.88-0.83 7.32-0.43 10.5 0.38 3.02 1.47 7.75 2.41 10.5 0.95 2.75 2.55 6.35 3.57 8 1.02 1.65 3.45 4.98 5.41 7.4 1.96 2.43 5.81 5.69 13.56 10.08l-5 0.04c-3.74 0.03-5.94-0.6-8.75-2.49-2.06-1.4-4.88-3.77-6.26-5.28-1.38-1.52-4.34-6.35-6.58-10.75-3.22-6.34-4.19-9.47-4.62-15-0.38-4.82-0.06-8.73 1.01-12.5 1.03-3.61 2.77-6.71 5.07-9 1.94-1.93 6.58-5.19 10.32-7.24 3.75-2.05 7.26-3.74 7.81-3.76zm33.32 1.95c0.92-0.03 3.45 1.89 5.62 4.25 2.17 2.36 4.75 6.21 5.75 8.55 1.02 2.38 1.7 6.08 1.56 8.42-0.14 2.31-0.81 4.32-1.5 4.5-0.73 0.19-1.51-1.03-1.87-2.92-0.35-1.79-1.7-5.39-3-8-1.31-2.62-3.89-6.44-5.73-8.5-1.85-2.07-3.17-4.32-2.94-5 0.23-0.69 1.18-1.28 2.11-1.3zm-7.71 5.05c0.49 0 2.29 1.23 3.99 2.75 1.71 1.51 4.65 5.9 6.53 9.75 1.88 3.85 3.43 8.12 3.44 9.5 0.01 1.37-0.56 3.05-1.27 3.74-0.72 0.68-1.65 0.91-2.08 0.5-0.42-0.41-0.77-1.42-0.76-2.24 0.01-0.83-1.1-3.87-2.47-6.75-1.37-2.89-4.29-7.28-6.49-9.75-3.18-3.58-3.77-4.81-2.89-6 0.61-0.83 1.51-1.5 2-1.5zm-8.77 6.03c1.22 0.02 3.86 1.85 6.09 4.25 2.16 2.32 4.94 6.47 6.18 9.22 1.23 2.75 2.5 6.46 2.82 8.25 0.41 2.34 0.09 3.7-1.18 4.88-1.64 1.55-1.83 1.35-3.11-3.25-0.75-2.68-2.83-7.13-4.62-9.88-1.8-2.75-4.64-6.35-6.33-8-1.69-1.65-2.83-3.57-2.55-4.25 0.29-0.69 1.5-1.24 2.7-1.22z"/>
		<path id="Path 9" fill-rule="evenodd" class="s7" d="m789.72 224.02c0.8-0.01 1.35 2.29 1.61 6.73 0.22 3.71 1.13 8.44 3.67 14.25l4.75-4.05c2.61-2.23 7.22-4.96 10.25-6.08 3.02-1.12 8.54-2.33 19.02-3.37l-0.02 7c-0.01 3.85 0.7 9.48 1.57 12.5 0.87 3.02 3.3 8.43 5.4 12 2.1 3.57 9.77 14.15 17.05 23.5 7.28 9.35 15.21 20.37 17.62 24.5 2.4 4.12 5.37 10.43 6.6 14 1.49 4.38 2.21 8.79 2.18 13.5-0.03 5.02-0.68 8.42-2.28 12-1.23 2.75-3.9 6.64-5.94 8.64-2.5 2.47-3.3 3.84-2.45 4.25 0.69 0.34 2.71-0.07 4.5-0.91 1.79-0.84 4.26-1.51 5.5-1.5 1.24 0.01 2.23 0.36 2.21 0.77-0.02 0.41-0.81 1.3-1.75 1.97-0.94 0.67-2.95 1.23-7.21 1.28l1.68 3.25c0.92 1.79 1.67 5.27 1.67 7.75 0 2.48-0.8 6.07-1.78 8-0.99 1.93-3.43 5.22-5.43 7.33-2 2.11-4.88 4.47-6.39 5.25-1.51 0.78-2.89 1.31-3.05 1.17-0.17-0.14-1.14-3.63-2.16-7.75-1.02-4.13-3.4-12-5.29-17.5-1.89-5.5-5.4-13.82-7.81-18.5-2.41-4.68-7.6-13.45-11.54-19.5-3.94-6.05-10.6-15.25-14.78-20.45-4.19-5.2-12.35-14.14-18.12-19.87-5.78-5.72-16.13-14.64-23-19.8-6.88-5.17-15.65-10.93-19.5-12.8-3.85-1.87-10.6-4.83-15-6.58-4.4-1.74-8.11-3.36-8.25-3.59-0.14-0.22 0.42-1.76 1.25-3.41 0.83-1.65 3.75-5.25 6.5-8 2.86-2.86 7.67-6.24 11.25-7.9 3.44-1.59 7.71-3.16 12.75-4.1l-0.03 6.25c-0.01 3.44 0.32 6.58 0.75 6.98 0.43 0.4 3.25-1.97 6.28-5.26 3.02-3.3 7.97-7.33 11-8.96 3.02-1.64 6.05-2.98 6.72-2.99zm-86.88 57.99c0.91 0 3.46 0.49 9.66 2.15l-3.5 2.66c-1.92 1.47-7.66 6.16-12.75 10.42-5.09 4.27-9.25 7.53-9.25 7.26 0-0.27 1.74-3.09 3.87-6.25 2.13-3.16 5.32-8.11 7.09-11 1.81-2.95 3.94-5.25 4.88-5.24zm87.46 9.98c0.44 0.01 3.82 3.16 7.5 7.02 3.69 3.85 6.47 7.01 6.2 7.01-0.28 0-3.65-3.16-7.5-7.02-3.85-3.86-6.64-7.01-6.2-7.01zm33.78 125.23c0.39 1.26 0.77 3.4 0.83 4.78 0.11 2.24-1.13 3.1-11.65 8.15-6.47 3.1-11.86 5.58-11.97 5.5-0.12-0.08 4.8-4.77 10.92-10.43 10.36-9.55 11.19-10.11 11.87-8z"/>
		<path id="Path 10" fill-rule="evenodd" class="s8" d="m649.2 118.2c0.71 0.26 1.59 1.56 1.95 2.89 0.36 1.33 0.7 4.32 0.75 6.66 0.06 2.34-0.24 4.08-0.65 3.86-0.41-0.21-1.12-2.69-1.58-5.51-0.46-2.82-1.04-5.86-1.3-6.75-0.31-1.03 0-1.45 0.83-1.15zm-50.67 9.53c0.81 0.15 1.24 0.72 0.97 1.27-0.28 0.55 0.06 1.71 0.75 2.58 1.02 1.28 0.97 1.73-0.25 2.41-1.05 0.59-2.03 0.11-3.25-1.58-0.96-1.32-2.76-2.73-4-3.12-2.04-0.64-1.94-0.76 1.03-1.27 1.8-0.31 3.94-0.44 4.75-0.29zm2.61 9.27c0.51 1.37 0.65 3.18 0.3 4-0.49 1.14-0.86 0.9-1.58-1-0.51-1.38-0.65-3.18-0.3-4 0.49-1.14 0.86-0.9 1.58 1zm-70.14 2.08c0.27-0.09 1.05 1.1 1.73 2.63 0.68 1.53 2.38 3.91 3.77 5.29 1.89 1.87 2.21 2.7 1.27 3.32-0.76 0.48-0.37 0.58 0.98 0.25 1.24-0.32 2.44-0.23 2.68 0.18 0.23 0.41-2.36 1.31-5.75 1.99-3.4 0.68-6.74 1.24-7.43 1.25-0.7 0.01-1.55-1.86-1.93-4.24-0.37-2.34-0.75-5.38-0.85-6.75-0.13-1.93 0.43-2.64 2.43-3.13 1.43-0.35 2.82-0.7 3.1-0.79zm-55.78 8.73c0.4 0.38 0.85 2.94 1 5.69 0.15 2.75 0.55 5.23 0.87 5.5 0.33 0.27 0.89 1.96 1.25 3.75 0.39 1.94 0.26 3.25-0.34 3.25-0.55 0-1.5-1.69-2.1-3.75-0.61-2.06-0.84-4.54-0.5-5.5 0.34-1.01 0.18-1.54-0.4-1.25-0.61 0.3-0.9-1.24-0.75-3.94 0.14-2.44 0.57-4.13 0.97-3.75zm126.79 101.19c0.46 2.48 0.89 6.52 0.94 9 0.06 2.48-0.07 4.27-0.29 4-0.22-0.27-0.65-4.32-0.95-9-0.4-6.18-0.32-7.27 0.3-4zm129.09 34.54c1.87 0.94 6.88 4.01 11.13 6.83 4.25 2.82 7.51 5.24 7.25 5.38-0.27 0.14-1.83-0.65-3.48-1.75-1.65-1.1-2.99-1.66-2.98-1.25 0.01 0.41-0.65-0.15-1.47-1.25-0.82-1.1-1.5-1.66-1.52-1.25-0.02 0.41-0.93-0.15-2.03-1.25-1.16-1.16-2.52-1.69-3.24-1.25q-1.23 0.74-0.5-0.5c0.49-0.82-0.33-1.68-2.39-2.5-1.72-0.69-3.37-1.62-3.65-2.08-0.29-0.46 1.01-0.07 2.88 0.87zm-57.6 3.53c1.37 0.06 0.96 0.45-1.3 1.26-1.81 0.64-5.07 2.63-7.25 4.42-2.17 1.79-5.3 5.61-6.94 8.5-1.65 2.89-3 4.8-3.01 4.25-0.02-0.55 1.27-3.02 2.85-5.5 1.59-2.48 4.18-5.67 5.77-7.1 1.58-1.42 4-3.34 5.38-4.25 1.37-0.92 3.4-1.63 4.5-1.58zm-58.5 13.43c0.55 0.27 1.9 2.98 3 6 1.1 3.02 1.95 6.74 1.89 8.25-0.08 2.14-0.28 1.86-0.88-1.25-0.42-2.2-1.72-6.14-2.89-8.75-1.16-2.61-1.67-4.52-1.12-4.25zm66.49 1.5c0.2 0-1.51 2.92-3.81 6.48-2.3 3.56-4.63 6.51-5.18 6.55-0.55 0.03 0.15-1.42 1.56-3.23 1.4-1.82 3.57-4.76 4.8-6.55 1.24-1.79 2.42-3.25 2.63-3.25zm11.94 5c0.17 0-7.2 7.54-16.38 16.75-14.2 14.26-17.27 17.89-20.61 24.43-2.17 4.23-4.05 7.49-4.19 7.25-0.14-0.23 1.04-3.02 2.62-6.18 1.58-3.16 5.74-9.32 9.25-13.69 3.51-4.37 11.47-12.58 17.69-18.25 6.22-5.67 11.45-10.31 11.62-10.31zm-22.51 10.6c0.32 0.26-1.85 2.82-10.23 10.9l4.82-5.69c2.65-3.12 5.09-5.47 5.41-5.21zm-41.41 24.84c2.76 2.78 6 7.08 7.19 9.56 1.2 2.48 2.44 5.85 2.75 7.5 0.32 1.65-0.36 0.52-1.5-2.5-1.14-3.02-3.01-6.85-4.17-8.5-1.15-1.65-3.71-4.83-5.69-7.06-2.1-2.38-1.52-1.96 1.42 1zm-38.57 37.14c0.31 0.22-1.63 4.12-4.3 8.66-2.67 4.54-5.56 8.93-6.41 9.76-0.86 0.83-0.57-0.08 0.65-2 1.21-1.92 3.85-6.5 5.85-10.16 2.01-3.67 3.9-6.49 4.21-6.26zm226.98 32.01c0.32 0.25-0.09 1.04-0.92 1.75-0.83 0.71-6 5.32-11.5 10.24-5.5 4.92-10.92 9.61-12.05 10.43-1.13 0.82 0.67-0.97 4-3.99 3.33-3.01 9.16-8.49 12.97-12.18 3.8-3.69 7.18-6.5 7.5-6.25zm-285.24 32.51c0.1-0.06-0.2 0.69-0.67 1.65-0.47 0.96-2.8 3.59-5.18 5.83-2.38 2.24-6.36 5.54-13.33 10.57l4-3.31c2.2-1.82 6.47-5.86 9.5-8.97 3.02-3.12 5.58-5.72 5.68-5.77zm263.32 0.98c0.27-0.01-0.4 0.65-1.5 1.47-1.1 0.82-2.34 1.48-2.75 1.47-0.41-0.01-2.63 1.11-4.94 2.49-2.3 1.38-4.18 2.03-4.17 1.44 0.01-0.59 2.91-2.37 6.44-3.97 3.53-1.59 6.65-2.89 6.92-2.9zm-94.5 45.73l4 2.75c2.2 1.51 5.28 3.92 6.84 5.35 1.56 1.42 3.79 3.94 4.96 5.59 1.16 1.65-0.35 0.5-3.35-2.55-3-3.05-7.03-6.81-8.95-8.34zm-178.78 50.68c0.58 0.55 3.19 3.7 5.82 7 2.62 3.3 3.69 5.03 2.37 3.84-1.33-1.2-3.94-4.35-5.82-7-1.87-2.66-2.94-4.39-2.37-3.84zm-150.74 12.5c0.26 0-1.77 2.25-4.52 5-2.75 2.75-5.64 5-6.43 5-0.89 0-1.07-0.34-0.48-0.91 0.52-0.5 3.2-2.75 5.95-5 2.75-2.26 5.22-4.09 5.48-4.09zm-55.23 35.03c0.14-0.02 0.27 0.09 0.29 0.22 0.03 0.14-3.12 2.62-7 5.5-3.87 2.89-7.38 5.26-7.79 5.26-0.41 0 2.62-2.46 6.75-5.48 4.12-3.02 7.61-5.49 7.75-5.5zm-10.04 46.33c1 0.83 1.07 1.42 0.27 2.14-0.61 0.55-2.09 1.13-3.3 1.28-1.2 0.16-2.29 0.72-2.43 1.25-0.14 0.54-1.04 0.65-2 0.25-1.39-0.58-1.54-0.43-0.75 0.74 0.74 1.08 0.67 1.27-0.25 0.72-0.69-0.4-2.6-0.29-4.25 0.26-1.65 0.55-2.77 1.45-2.5 2 0.3 0.61-0.2 0.71-1.25 0.28-1.24-0.52-1.53-0.38-1 0.5 0.53 0.87 0.24 1.01-1 0.5-1.39-0.58-1.55-0.43-0.76 0.75 0.73 1.08 0.66 1.28-0.25 0.72-0.68-0.41-1.33-1.19-1.43-1.74-0.11-0.54 4.24-3.19 9.67-5.89 7.68-3.82 10.17-4.65 11.23-3.76zm-78.37 51.04c4.75 0.06 8.81 0.55 9.02 1.1 0.23 0.6-2.58 1.11-6.99 1.25-5.48 0.19-7.18-0.05-6.62-0.93 0.54-0.85 0.11-0.99-1.5-0.5-1.24 0.38-2.32 0.3-2.4-0.17-0.08-0.46 3.74-0.8 8.49-0.75z"/>
		<path id="Path 11" class="s9" d="m560.2 422.5c-0.89 2.75-1.57 7.48-1.51 10.5 0.07 3.02 0.97 7.75 2.02 10.5 1.04 2.75 3.74 7.7 6 11 2.25 3.3 6.21 8.02 8.79 10.5l4.7 4.5c-7-10.08-10.76-16.6-12.87-21-3.51-7.34-3.83-8.7-3.83-16.5 0-5.72 0.51-9.48 1.55-11.5 1.51-2.93 1.49-3-0.84-3-1.99 0-2.67 0.84-4.01 5zm44.75 84.5c0 0.27 0.74 2.3 1.64 4.5 0.9 2.2 3.53 6.92 5.85 10.5 2.31 3.58 6.42 8.7 9.13 11.38 2.71 2.68 6.28 5.56 7.93 6.4 1.65 0.83 4.35 1.88 6 2.32 2.17 0.58 3.83 0.33 6-0.89 1.65-0.94 3.9-1.97 5-2.3 1.1-0.33-0.59-0.67-3.75-0.76-3.27-0.08-7.69-1.01-10.25-2.15-2.48-1.1-6.86-4.25-9.75-6.99-2.89-2.75-5.59-4.78-6-4.5-0.41 0.27-0.53 0.26-0.25-0.01 0.27-0.27-2.03-4.21-5.12-8.75-3.09-4.54-5.8-8.48-6.03-8.75-0.22-0.27-0.4-0.27-0.4 0zm-43.03 44.47c-1.33 1.36-2.87 2.15-3.41 1.75q-0.98-0.71 0 0.76c0.76 1.13 0.64 1.33-0.51 0.86-0.83-0.34-3.08 0.21-5 1.23-1.92 1.02-2.83 1.9-2 1.96q1.55 0.1-0.5 0.97-2.02 0.86-0.5 0.94c0.83 0.05 3.52-1.2 6-2.78 2.47-1.59 5.58-4.07 6.9-5.52 1.33-1.45 2.19-2.64 1.92-2.64-0.26 0-1.57 1.11-2.9 2.47zm120.63 35.53c0.36 1.37 1.31 3.62 2.11 5l1.46 2.5c-2.81-3.42-4.03-4.1-4.53-3.71-0.5 0.39-0.68 0.26-0.41-0.29 0.28-0.55-0.33-1.79-1.34-2.75-1.01-0.96-1.85-1.41-1.86-1-0.01 0.41 1.3 2.77 2.92 5.25 1.62 2.48 4.22 5.62 5.77 7 1.55 1.37 2.04 1.6 1.1 0.5-0.95-1.1-1.75-2.67-1.78-3.5-0.03-0.86 0.92-0.23 2.23 1.48 1.25 1.64 2.17 3.33 2.03 3.75-0.14 0.42 0.2 0.54 0.75 0.27 0.55-0.27 1.56 0.2 2.25 1.04 0.69 0.85 1.59 1.53 2 1.5 0.41-0.02-0.83-1.5-2.76-3.29-1.93-1.79-5.1-6.17-7.05-9.75-1.95-3.58-3.25-5.38-2.89-4z"/>
		<path id="Path 12" class="s10" d="m575.85 300.18c-1.37 1.83-3.22 5.12-4.12 7.32-0.89 2.2-1.95 6.48-2.35 9.5-0.59 4.54-0.48 5.33 0.64 4.5 1.11-0.82 1.24-0.31 0.67 2.75-0.51 2.77-0.38 3.55 0.49 3 0.88-0.55 0.96-0.09 0.32 1.75-0.71 2.05-0.62 2.32 0.54 1.5 1.11-0.79 1.26-0.62 0.69 0.75-0.45 1.08-0.29 1.75 0.44 1.75 0.64 0 0.88 0.34 0.52 0.75-0.35 0.41 0.36 2.08 1.59 3.7 1.22 1.63 4.02 4.21 6.22 5.74 2.2 1.53 4.45 2.5 5 2.15 0.56-0.34-0.11-1.42-1.5-2.42-1.38-0.99-2.5-2.3-2.5-2.9 0-0.6-0.6-1.41-1.34-1.81-0.73-0.39-1.29-1.05-1.25-1.46 0.05-0.41-0.6-2.44-1.44-4.5-0.83-2.06-2-6.45-2.57-9.75-0.58-3.3-0.75-8.7-0.37-12 0.38-3.3 1.32-7.57 2.08-9.5 0.77-1.93 1.25-3.64 1.06-3.82-0.18-0.17-1.45 1.18-2.82 3zm-55.85 191.42c-1.92 0.84-5.06 2.74-6.96 4.21-1.9 1.48-4.72 4.71-6.26 7.19-1.55 2.48-2.78 5.4-2.75 6.5 0.04 1.68 0.52 1.44 2.97-1.5 1.61-1.92 2.74-3.73 2.51-4-0.23-0.27 1.47-2.12 3.78-4.1 2.32-1.98 6.46-5.03 9.21-6.77 3.3-2.09 4.32-3.14 3-3.11-1.1 0.03-3.58 0.74-5.5 1.58zm42.25 58.41c-2.34 2.2-4.25 3.76-4.25 3.49 0-0.27-0.9 0.4-2 1.5-1.1 1.1-2.67 1.77-3.5 1.5q-1.47-0.48-0.75 0.68c0.54 0.85 0.11 0.99-1.5 0.5-1.24-0.37-2.25-0.34-2.25 0.07 0 0.41-1.01 0.83-2.25 0.93-1.24 0.1-3.66 0.32-5.37 0.5-1.93 0.2-2.98 0.8-2.75 1.57 0.25 0.85 1.88 1.12 5.12 0.83 2.61-0.22 5.31-0.45 6-0.5 0.69-0.04 1.05-0.42 0.81-0.83-0.24-0.41 1.23-1.4 3.25-2.2 2.03-0.8 4.03-1.36 4.44-1.25 0.41 0.11 0.52-0.25 0.25-0.8-0.28-0.55 0.29-1.3 1.25-1.66 0.96-0.37 2.2-0.71 2.75-0.75 0.55-0.05 1-0.63 1-1.28 0-0.66 1.01-2.12 2.25-3.25 1.24-1.13 2.25-2.29 2.25-2.56 0-0.27-0.11-0.49-0.25-0.49-0.14 0.01-2.16 1.81-4.5 4zm116.99 11.74c-1.88 4.06-2.76 7.81-3 12.75-0.23 4.8 0.07 7.4 0.96 8.27 0.72 0.7 0.97 1.6 0.57 2-0.41 0.4 0.38 1.74 1.75 2.98 1.36 1.24 2.25 2.48 1.98 2.75-0.27 0.27-0.16 0.29 0.25 0.04 0.41-0.25 1.56 0.54 2.56 1.75 1.79 2.19 1.79 2.18 0.25-0.54-0.86-1.51-1.33-3.42-1.06-4.25 0.27-0.83 0.05-1.27-0.5-1-0.55 0.27-0.99-0.51-0.97-1.75 0.01-1.24-0.26-6.52-0.62-11.75-0.35-5.23-0.21-11.19 0.32-13.25 0.52-2.06 0.78-3.75 0.57-3.75-0.21 0-1.59 2.59-3.06 5.75zm7.24 33.75c-0.27 0.83 0.31 2.61 1.27 3.97 0.96 1.36 2.1 2.14 2.53 1.75 0.43-0.4 0.76-0.16 0.75 0.53-0.02 0.69 0.64 1.48 1.47 1.75 0.83 0.27 1.8-0.06 2.16-0.75 0.37-0.7 0.26-0.91-0.25-0.49-0.5 0.42-1.91-0.26-3.13-1.5-1.23-1.24-2.01-2.6-1.75-3.01 0.26-0.41-0.09-0.64-0.78-0.5-0.69 0.14-1.21-0.54-1.16-1.5 0.04-0.96-0.08-1.75-0.28-1.75-0.2 0-0.57 0.67-0.83 1.5z"/>
		<path id="Path 13" class="s1" d="m723.51 302.69c-1.1 0.25-1.88 0.87-1.75 1.38 0.13 0.51 1.93 1.77 3.99 2.79 2.06 1.03 5.04 3.39 6.62 5.25 1.58 1.87 3.78 5.19 4.88 7.39 1.1 2.2 2.86 7.38 3.91 11.5 1.05 4.13 2.23 7.87 2.62 8.33 0.4 0.46 1.73 0.35 2.97-0.25 1.38-0.66 2.48-2.33 2.85-4.33 0.35-1.88-0.11-5.77-1.1-9.25-0.94-3.3-2.76-7.8-4.05-10-1.29-2.2-4.06-5.66-6.15-7.69-2.09-2.03-5.04-4.17-6.55-4.75-1.51-0.58-3.54-1.01-4.5-0.94-0.96 0.06-2.65 0.32-3.74 0.57zm-8.01 24.96c-1.65 0.87-4.74 3.22-6.87 5.21-2.13 2-4.7 5.44-5.73 7.64-1.02 2.2-1.87 5.46-1.88 7.25-0.01 2.3 0.86 4.13 2.98 6.25 2.28 2.28 3.91 3 6.75 2.99 2.06-0.01 5.55-0.9 7.75-1.97 2.2-1.07 5.92-3.88 8.26-6.23 2.34-2.36 4.87-6.09 5.62-8.29q1.37-4 0.54-7.5c-0.45-1.93-1.86-4.31-3.12-5.29-1.49-1.16-3.89-1.77-6.8-1.71-2.48 0.04-5.85 0.79-7.5 1.65zm59.57 42.38c-1.78 0.67-2.38 1.58-2.25 3.44 0.15 2.12 1.11 2.87 5.93 4.61 3.16 1.14 8.23 3.56 11.25 5.38 3.02 1.81 6.64 4.59 8.03 6.17 1.4 1.58 3.42 5.05 4.5 7.71 1.79 4.4 2.09 4.68 3.24 3 0.69-1.01 1.26-3.53 1.25-5.59-0.01-2.06-0.47-4.88-1.02-6.25-0.55-1.38-3.14-4.8-5.75-7.62-2.61-2.81-7.23-6.35-10.25-7.86-3.02-1.51-7.08-3-9-3.32-1.92-0.31-4.59-0.16-5.93 0.33zm-60.07 7.63c-0.83 0.33-2.52 1.55-3.78 2.72-1.25 1.16-2.53 3.69-2.84 5.62-0.33 2.02 0 4.72 0.78 6.4 0.74 1.59 2.58 3.73 4.09 4.75 1.51 1.02 2.98 1.85 3.25 1.85 0.27 0-0.63-1.69-2-3.75-1.38-2.06-2.51-4.99-2.5-6.5 0-1.51 1.01-3.86 2.25-5.21 1.24-1.36 3.38-2.73 4.75-3.06 1.75-0.42 3.63 0.17 6.25 1.96 2.85 1.95 3.54 2.14 2.85 0.81-0.49-0.96-1.73-2.53-2.75-3.49-1.02-0.95-3.43-1.95-5.35-2.22-1.92-0.26-4.17-0.21-5 0.12zm54 8.66c-1.92 0.68-5.25 2.58-7.39 4.21-2.14 1.63-5.17 5.22-6.74 7.97-1.8 3.15-2.86 6.48-2.88 9-0.02 2.64 0.66 4.77 1.99 6.25 1.11 1.24 3.26 2.53 4.77 2.88 1.51 0.35 4.33 0.35 6.25 0.02 1.92-0.34 5.27-1.86 7.44-3.38 2.17-1.52 5.35-4.57 7.08-6.77 1.83-2.35 3.44-5.86 3.88-8.5 0.52-3.07 0.33-5.42-0.57-7.39-0.73-1.58-2.57-3.5-4.08-4.25-1.51-0.75-3.54-1.34-4.5-1.32-0.96 0.03-3.33 0.6-5.25 1.28zm-83.34 7.68c0.88 3.02 2.73 7.3 4.13 9.5 1.39 2.2 5.27 6.62 8.62 9.83 3.35 3.21 8.34 6.92 11.09 8.24 2.75 1.32 7.48 2.92 10.5 3.55 3.8 0.79 6.12 0.83 7.5 0.12 1.74-0.89 1.28-1.22-3.5-2.59-3.02-0.86-8.2-3.2-11.5-5.19-3.3-2-8.25-5.54-11-7.88-2.75-2.33-7.13-7.13-9.73-10.66-2.6-3.53-5.39-7.32-6.21-8.42-1.27-1.71-1.26-1.19 0.1 3.5z"/>
		<path id="Path 14" class="s3" d="m549.07 260.25c-0.04 0.96 0.83 4.23 1.93 7.25 1.1 3.02 2.22 5.39 2.48 5.25 0.27-0.14-0.6-3.4-1.92-7.25-1.33-3.85-2.44-6.21-2.49-5.25zm10.31 34.47c-0.09 7.89 0.11 9.84 0.75 7.28 0.47-1.93 1.08-5.52 1.34-8 0.28-2.5-0.06-5.73-0.74-7.28-1.08-2.42-1.24-1.42-1.35 8zm-1.03 24.28c0 4.68 0.17 6.48 0.38 4 0.21-2.48 0.21-6.3 0-8.5-0.21-2.2-0.38-0.18-0.38 4.5zm91.63 112.5c-0.02 0.55 1.78 3.81 3.99 7.25 2.22 3.44 4.48 6.48 5.03 6.75 0.55 0.27 0.67 1.06 0.26 1.75q-0.73 1.24 0.5 0.5c0.91-0.55 0.48-1.75-1.6-4.5-1.56-2.06-4.03-5.77-5.49-8.25-1.46-2.48-2.67-4.05-2.69-3.5z"/>
		<path id="Path 15" class="s5" d="m655.2 313.25c-0.51 2.34-0.77 5.49-0.57 7 0.2 1.51 0.82 2.75 1.37 2.75 0.55 0 0.77-0.9 0.5-2-0.28-1.1-0.05-2 0.5-2 0.55 0 0.77 0.45 0.5 1-0.28 0.55-0.05 1 0.5 1 0.55 0 0.77-0.68 0.5-1.5-0.28-0.82-0.5-1.73-0.5-2 0-0.27-0.53-0.16-1.19 0.25-0.88 0.56-1.01-0.45-0.5-4 0.37-2.61 0.48-4.75 0.25-4.75-0.23 0-0.84 1.91-1.36 4.25zm-9.74 112.37c0.26 1.04 0.56 4.13 0.67 6.88 0.11 2.75 0.41 5.67 0.66 6.5 0.41 1.33 0.56 1.33 1.32 0q0.85-1.46 0.87-0.25c0.01 0.69 0.58 1.83 1.27 2.54 0.69 0.71 1.7 2.1 2.25 3.08 0.55 0.98 1.24 1.64 1.54 1.46 0.3-0.18 1.77 0.46 3.25 1.42 1.49 0.96 2.92 1.41 3.18 1 0.25-0.41-1.13-2.55-3.07-4.75-1.94-2.2-5.19-7.32-7.22-11.37-2.02-4.05-4.02-7.59-4.43-7.87-0.42-0.28-0.54 0.33-0.29 1.36zm71.04 30.4c0.55 0.55 3.92 1.44 7.5 1.97 3.57 0.53 8.3 0.92 10.5 0.87 3.73-0.1 3.63-0.17-1.5-1-3.03-0.49-7.19-1-9.25-1.13-2.06-0.13-3.78-0.47-3.82-0.77-0.03-0.29-1.05-0.62-2.25-0.74q-2.18-0.2-1.18 0.8zm-87.01 64.02c-0.27 0.53-0.04 1.19 0.51 1.46 0.55 0.27 0.98 0.16 0.96-0.25-0.03-0.41 0.67-0.08 1.54 0.75 0.87 0.83 1.55 2.17 1.51 3-0.05 1.13-0.43 1.01-1.54-0.5-0.91-1.23-1.77-1.61-2.24-1-0.42 0.55-0.53 0.89-0.25 0.76 0.29-0.14 1.08 0.2 1.77 0.75 0.69 0.54 1.02 1.44 0.75 1.99-0.28 0.55 0.17 0.77 1 0.5 0.82-0.27 1.5-1.17 1.5-2 0-0.83-0.39-2.29-0.86-3.25-0.48-0.96-1.61-2.07-2.51-2.46-0.91-0.38-1.87-0.27-2.14 0.25zm-2.55 8.96c0.82 1.54 0.77 1.83-0.19 1.28-0.69-0.4-1.93-0.85-2.75-1.01-1.23-0.24-1.27-0.01-0.25 1.22 0.69 0.83 1.59 1.46 2 1.39 0.41-0.06 1.31-0.06 2 0 0.69 0.07 1.02 0.57 0.75 1.12-0.28 0.55-0.16 0.95 0.25 0.88 0.41-0.06 1.31-0.06 2 0 0.69 0.07 1.02 0.57 0.75 1.12-0.31 0.62 0.36 0.73 1.75 0.29 1.37-0.43 2-0.33 1.61 0.25-0.38 0.56 0.66 0.85 2.5 0.7 2.62-0.21 2.81-0.1 1.14 0.68-1.27 0.6-1.45 0.93-0.5 0.91 0.82-0.02 2.62-0.39 4-0.83 2.1-0.67 2.18-0.82 0.5-0.94-1.79-0.12-1.74-0.27 0.5-1.45 2.04-1.08 2.23-1.47 1-2.16-0.83-0.46-3.3-1.22-5.5-1.68-2.2-0.47-5.13-1.05-6.5-1.29-1.38-0.24-2.95-0.9-3.5-1.47-0.55-0.58-1.36-1.04-1.81-1.03-0.44 0.01-0.33 0.92 0.25 2.02z"/>
		<path id="Path 16" class="s8" d="m773.73 318.2c4.53 4.57 8.24 8.75 8.25 9.3 0.01 0.55 0.45 1 0.98 1 0.52 0 1.68 0.9 2.57 2 0.89 1.1 1.28 1.32 0.86 0.5-0.42-0.82-4.62-5.67-9.33-10.78-4.71-5.1-9.23-9.51-10.06-9.8-0.83-0.28 2.2 3.22 6.73 7.78zm-40.71-3.95c-0.01 0.41 0.65 1.76 1.47 3 0.83 1.24 2.61 5.63 3.96 9.75 1.35 4.13 2.49 6.82 2.52 6 0.03-0.82-0.87-4.2-2-7.5-1.13-3.3-2.93-7.35-4-9-1.06-1.65-1.94-2.66-1.95-2.25zm15.6 9.5c0.71 2.06 1.33 5.77 1.37 8.25 0.05 3.3-0.47 5.03-1.99 6.5-1.42 1.38-2.66 1.77-4.03 1.25-1.21-0.46-1.78-0.36-1.47 0.25 0.27 0.55 1.62 1 3 1 1.48 0 3.12-0.92 4.01-2.25 0.83-1.24 1.5-3.94 1.5-6-0.01-2.06-0.4-5.77-0.87-8.25-0.47-2.48-1.29-4.5-1.83-4.5-0.58 0-0.45 1.53 0.31 3.75zm-19.82 2.54c1.26 0.66 2.93 2.34 3.71 3.71 0.78 1.38 1.44 3.85 1.46 5.5 0.03 1.65-0.86 4.69-1.96 6.75-1.11 2.06-1.56 3.75-1.01 3.75 0.55 0 1.67-1.8 2.5-4 0.83-2.2 1.5-5.12 1.5-6.5 0-1.37-0.67-3.85-1.5-5.5-0.83-1.65-2.4-3.45-3.5-4-1.1-0.55-2.34-0.98-2.75-0.96-0.41 0.01 0.28 0.58 1.55 1.25zm-24.14 8.46c-1.41 2.06-3.3 5.55-4.2 7.75-0.96 2.33-1.4 5.25-1.07 7 0.31 1.65 1.81 4.2 3.34 5.67 1.52 1.47 4.35 2.99 6.27 3.37 1.92 0.38 3.79 0.31 4.15-0.17 0.36-0.48-0.84-0.87-2.67-0.87-1.83 0-4.6-0.95-6.16-2.11-1.55-1.16-3.22-3.41-3.72-5-0.66-2.13-0.41-4.21 0.96-7.89 1.02-2.75 3.13-6.46 4.68-8.25 1.56-1.79 2.42-3.25 1.91-3.25-0.5 0-2.07 1.69-3.49 3.75zm68.33 35.5c-1.14 1.24-1.95 3.11-1.78 4.17 0.16 1.06 0.85 2.07 1.54 2.25 1 0.26 1-0.06 0-1.61-1.04-1.62-0.95-2.3 0.59-4.08 1.51-1.76 2.67-2.07 6.5-1.74 2.56 0.22 5.56 0.74 6.66 1.15 1.24 0.46 1.05 0.16-0.5-0.79-1.38-0.84-4.4-1.55-6.71-1.56-3.12-0.03-4.76 0.55-6.3 2.21zm-62.49 9.15c-1.81 1.87-3.33 4.23-3.36 5.25-0.04 1.04 0.51 0.46 1.25-1.32 0.72-1.75 2.56-3.94 4.09-4.88 2.06-1.26 4.1-1.56 7.9-1.16 3.24 0.34 4.57 0.21 3.62-0.36-0.83-0.5-3.46-0.91-5.85-0.91-3.64-0.02-4.89 0.53-7.65 3.38zm109.48 3.6c1.66 3.3 2.73 6.56 2.37 7.25-0.45 0.88-0.29 0.96 0.57 0.25 0.93-0.76 0.49-2.48-1.85-7.25-1.69-3.44-3.31-6.25-3.59-6.25-0.29 0 0.83 2.7 2.5 6zm-131.39 10.79c1.05 1.81 3.61 5.19 5.68 7.5 2.84 3.16 2.5 2.47-1.37-2.79-2.83-3.85-5.38-7.23-5.68-7.5-0.29-0.27 0.33 0.98 1.37 2.79zm63.61 7.18c-1.21 2.77-2.17 5.82-2.13 6.78 0.03 0.96 0.63-0.05 1.32-2.25 0.69-2.2 1.79-5.01 2.44-6.25 0.64-1.24 1.04-2.49 0.87-2.78-0.16-0.29-1.29 1.73-2.5 4.5zm26.83 7.03c-0.57 1.1-2.94 3.31-5.28 4.9-2.34 1.6-6.28 3.46-8.75 4.14-4 1.1-4.89 1.02-8-0.71-1.92-1.07-4.06-3.04-4.74-4.39-0.7-1.39-1.25-1.8-1.27-0.94-0.01 0.83 0.88 2.51 1.99 3.75 1.11 1.24 3.26 2.72 4.77 3.3 1.95 0.75 4.06 0.74 7.25-0.04 2.47-0.61 6.64-2.66 9.25-4.56 2.61-1.9 5.17-4.35 5.68-5.45 0.51-1.1 0.75-2 0.53-2-0.22 0-0.87 0.9-1.43 2zm59.31 6.75c0.36 0.69-0.01 1.47-0.84 1.75-0.83 0.27-1.5 0.05-1.5-0.5 0-0.55-0.9-0.77-2-0.5-1.23 0.31-1.81 1.08-1.5 2 0.27 0.83 0.16 1.5-0.25 1.5-0.41 0-0.75 0.61-0.75 1.36 0 1.14 0.32 1.14 2-0.01 1.1-0.75 2.44-1.02 2.97-0.61 0.53 0.42 0.3-0.03-0.5-0.99-1.34-1.6-1.25-1.73 1.14-1.5 1.5 0.14 2.57-0.24 2.5-0.9-0.06-0.64-0.52-1.54-1.02-2-0.53-0.5-0.63-0.33-0.25 0.4z"/>
		<path id="Path 17" class="s2" d="m528.5 151c-0.29 0.82-0.4 1.59-0.26 1.71 0.14 0.11 1.96-0.11 4.03-0.5 2.07-0.39 3.76-1.27 3.75-1.96-0.01-0.81-1.26-1.16-3.51-1-2.02 0.15-3.7 0.88-4.01 1.75z"/>
		<path id="Path 18" class="s9" d="m567.83 188.85c0.18 3.11 0.48 6.1 0.67 6.65 0.19 0.55 0.42-1.79 0.52-5.19 0.1-3.41-0.2-6.4-0.67-6.65-0.47-0.25-0.7 2.09-0.52 5.19zm-29.33 280.04c1.65 1.75 3.56 2.93 4.25 2.64 0.69-0.29 1.14-0.01 1 0.62-0.14 0.66 3.33 2.09 8.25 3.4 4.67 1.24 9.4 2.57 10.5 2.95 1.61 0.55 1.71 0.48 0.5-0.39-1.33-0.96-1.33-1.08 0-1.13 1.33-0.04 1.33-0.14 0-0.93-0.83-0.49-6.23-2.28-12-3.98-5.78-1.69-11.63-3.82-13-4.71-2.21-1.45-2.15-1.27 0.5 1.53zm26.97 9.66c0.02 0.8 0.37 1.45 0.78 1.45 0.41 0 0.97 0 1.25 0 0.27 0 2.08 1.35 4 3 1.92 1.65 3.84 2.98 4.25 2.96 0.41-0.02-1.05-1.64-3.25-3.59-2.2-1.95-4.69-3.93-5.53-4.4-1.06-0.6-1.51-0.42-1.5 0.58zm24.23 31.28c0.65 3.12 1.61 8.15 2.11 11.17l0.93 5.5c0.2-8.91-0.46-13.64-1.34-16.25-0.88-2.61-1.89-5.05-2.25-5.42-0.36-0.37-0.11 1.88 0.55 5zm44.01 11.55c1.05 1.59 1.99 3.5 2.1 4.25 0.1 0.76-0.48 1.37-1.31 1.37-0.83 0-2.42-1.24-3.53-2.75-1.12-1.51-2.04-2.3-2.03-1.75 0 0.55 1.14 2.12 2.52 3.5 1.64 1.64 3.03 2.24 4.02 1.75 0.84-0.41 1.52-1.42 1.52-2.25 0-0.83-1.17-2.74-2.6-4.25l-2.6-2.75zm70.49 100.64c1.27 1.66 2.64 3.01 3.06 3 0.41-0.02 0.99 0.09 1.29 0.23 0.29 0.13 1.52-1.33 2.72-3.25 1.72-2.77 1.8-3.19 0.4-2-0.98 0.82-1.98 2.28-2.22 3.25-0.26 1.02-1.07 1.54-1.94 1.25-0.83-0.28-1.5-0.95-1.5-1.5 0-0.55-0.68-1.68-1.5-2.5-0.83-0.83-1.75-1.5-2.06-1.5-0.3 0 0.48 1.35 1.75 3.02z"/>
		<path id="Path 19" class="s10" d="m579.39 273.25c-0.41 0.69-1.09 2.6-1.53 4.25-0.78 2.96-0.77 2.97 0.92 0.87 1.07-1.33 2.75-2.08 4.47-2 1.51 0.07 2.75 0.47 2.75 0.88 0 0.41 0.56 0.77 1.25 0.79 1 0.04 1-0.26 0-1.5-0.69-0.84-1.7-1.31-2.25-1.04-0.55 0.27-0.97 0.07-0.94-0.46 0.03-0.54-0.84-1.44-1.94-2.01-1.46-0.76-2.19-0.7-2.73 0.22zm53.56 136.28c0.03 0.26 1.24 2.83 2.69 5.72 1.45 2.89 3.29 7.05 4.09 9.25 0.8 2.2 1.77 7.37 2.15 11.5l0.7 7.5c2.15-9.1 2.09-11.07 0.83-16-0.84-3.3-2.97-8.6-4.72-11.78-1.76-3.18-3.77-5.98-4.49-6.22-0.71-0.24-1.27-0.23-1.25 0.03zm-57.26 26.7c0.14 1.8-0.3 3.6-0.97 4-0.72 0.44-0.08 0.75 1.53 0.75 1.78 0.01 2.75-0.51 2.75-1.48 0-0.93-0.47-1.21-1.23-0.75-0.87 0.53-1.02 0.24-0.5-1 0.52-1.24 0.37-1.53-0.5-1-0.87 0.53-1.02 0.24-0.5-1 0.4-0.96 0.38-1.98-0.04-2.27-0.43-0.28-0.67 0.96-0.54 2.75zm80.31 21.61c2.48 0.96 6.75 3.3 9.5 5.19 2.75 1.89 8.05 6.37 11.77 9.95 3.73 3.59 6.97 6.29 7.22 6.02 0.24-0.27-1.49-2.98-3.83-6-2.35-3.02-6.27-7.14-8.71-9.14-2.45-2-6.25-4.59-8.45-5.75-2.24-1.18-5.76-2.09-8-2.07l-4 0.05zm-35.78 6.41c-1.79 1.79-3.7 3.25-4.24 3.25-0.54 0-0.98 0.34-0.98 0.75 0 0.41 0.34 0.75 0.75 0.75 0.41 0.01 1.99-0.89 3.5-2 1.51-1.1 3.17-2.9 3.68-4 0.51-1.1 0.84-2 0.74-2-0.11 0-1.67 1.46-3.45 3.25zm-7.82 5.75c0.33 0.55 0 0.9-0.74 0.78-0.74-0.11-2.77 0.56-4.5 1.5-1.74 0.95-2.93 1.95-2.66 2.22 0.27 0.28 2.52-0.4 5-1.5 2.48-1.1 4.27-2.45 4-3-0.27-0.55-0.77-1-1.1-1-0.33 0-0.33 0.45 0 1zm3.7 5c-2.8 2.2-4.87 4.45-4.6 5 0.27 0.55-0.32 1.56-1.31 2.25-1 0.69-2.2 1.93-2.67 2.75-0.47 0.83 2.26-1.42 6.06-4.99 3.81-3.57 7.23-7.06 7.62-7.75 0.38-0.69 0.54-1.26 0.35-1.26-0.19 0-2.64 1.8-5.45 4zm-71.1 0c0 0.55-0.56 0.66-1.24 0.25q-1.23-0.74-0.5 0.5c0.43 0.72 0.21 1.3-0.51 1.37-0.69 0.06-1.59 0.06-2 0-0.41-0.07-2.1 1.57-3.76 3.63-1.65 2.06-3.29 5.1-3.64 6.75-0.47 2.21 0.04 4.19 1.91 7.5 1.4 2.48 3.73 5.63 5.17 7 1.44 1.38 2.63 2.05 2.63 1.5 0.01-0.55 1.12 0.35 2.47 2 1.35 1.65 2.46 2.66 2.47 2.25 0-0.41-2.04-3.11-4.52-6-2.49-2.89-5.19-6.71-6-8.5-0.82-1.79-1.47-4.04-1.45-5 0.02-0.96 0.87-3.1 1.9-4.75 1.03-1.65 3.73-4.35 6.01-6 2.28-1.65 4.12-3.11 4.1-3.25-0.02-0.14-0.71-0.25-1.54-0.25-0.83 0-1.5 0.45-1.5 1zm15 1.58c-2.11 1.27-2.16 1.4-0.34 0.86 1.6-0.49 1.99-0.31 1.5 0.69-0.49 0.99-0.3 1.09 0.7 0.36 0.94-0.68 1.56-0.59 2 0.31 0.49 1.01 0.98 0.91 2.14-0.44 0.86-1 0.97-1.45 0.25-1.05-0.69 0.38-1.25 0.24-1.25-0.31 0-0.56-0.76-0.68-1.75-0.27-1.23 0.51-1.54 0.37-1.04-0.5 0.4-0.68 0.62-1.21 0.5-1.19-0.11 0.02-1.33 0.71-2.71 1.54zm30.31 42.67c0.1 3.71-0.15 6.75-0.56 6.75-0.41 0-0.76 1.01-0.77 2.25-0.01 1.24-1.02 3.71-2.25 5.49-1.23 1.79-2.79 3.25-3.48 3.25-0.69 0.01-1.25 0.35-1.25 0.76 0 0.41-0.56 0.84-1.25 0.95-0.69 0.11-3.05 0.49-5.25 0.84-3.3 0.54-4.51 0.24-6.9-1.69-1.59-1.29-4.63-5.39-6.75-9.1-2.12-3.71-4.08-6.75-4.35-6.75-0.27 0 0.2 1.91 1.05 4.25 0.85 2.34 2.58 6.05 3.85 8.25 1.27 2.2 3.61 5.03 5.2 6.29 1.6 1.25 4.03 2.24 5.4 2.2 1.38-0.04 4.3-0.73 6.5-1.52 2.2-0.8 4.34-2.13 4.75-2.96 0.41-0.83 1.2-1.28 1.75-1.01 0.55 0.28 1 0.05 1-0.5 0-0.55 0.67-1.22 1.5-1.5 1.2-0.4 1.3-0.1 0.5 1.5-0.74 1.49-0.7 1.81 0.19 1.25 0.84-0.54 1.06 0.14 0.75 2.39-0.27 1.91-0.06 2.89 0.54 2.5 0.61-0.4 0.68 0.12 0.19 1.36q-0.8 2.03 0.23 1c0.57-0.55 1.09-5.72 1.17-11.5 0.08-5.77-0.32-12.97-0.9-16l-1.05-5.5zm-58.31 6.27c-1.9 1.08-2.08 1.42-0.75 1.45 0.96 0.02 1.97-0.42 2.25-0.97 0.27-0.55 0.95-0.77 1.5-0.5 0.55 0.28 0.74 1.29 0.42 2.25-0.55 1.66-0.52 1.66 0.75 0.02 0.73-0.96 1.68-1.41 2.11-1 0.42 0.4 0.76 0.04 0.73-0.8-0.02-0.85-1.02-1.6-2.27-1.69-1.23-0.1-3.37 0.47-4.74 1.24zm-131.52 119.73c-0.86 1.24-1.43 3.33-1.27 4.64 0.24 2 0.61 1.64 2.33-2.25 1.12-2.55 1.69-4.64 1.27-4.64-0.43 0-1.47 1.02-2.33 2.25z"/>
		<path id="Path 20" class="s6" d="m723 337.2c-0.77 0.66-1.31 2.24-1.2 3.5 0.11 1.26 0.87 2.53 1.7 2.8 0.83 0.27 2.4 0.05 3.5-0.5 1.1-0.55 2.23-1.9 2.5-3 0.27-1.1 0.27-2.45 0-3-0.27-0.55-1.53-1-2.8-1-1.27 0-2.93 0.54-3.7 1.2zm47 52.14c-1.52 0.79-2.56 2.29-2.73 3.97-0.24 2.38 0.07 2.69 2.73 2.69 2.21 0 3.33-0.66 4.25-2.52 1.04-2.1 1-2.77-0.27-3.97-1.26-1.2-1.94-1.22-3.98-0.17z"/>
	</g>
</svg>